<svg width="25" height="25" viewBox="0 0 25 25" fill="none" xmlns="http://www.w3.org/2000/svg">
<path d="M21.1015 24.4798L23.2556 21.5096C23.3073 21.489 23.3589 21.4683 23.3951 21.4218C23.4932 21.3082 23.4725 21.1325 23.3589 21.0395L13.4978 12.9244C13.6217 12.7229 13.6992 12.4853 13.6992 12.227C13.6992 11.9687 13.6217 11.7259 13.4926 11.5193C13.5029 11.509 13.5184 11.5038 13.5287 11.4883L14.9751 9.73202L16.8967 11.3127L24.609 3.4558L21.6801 1.33273C21.6646 1.29657 21.6388 1.26558 21.6078 1.24491C21.4941 1.14677 21.3185 1.16743 21.2255 1.28107L13.1207 11.1319C12.9037 10.9821 12.6403 10.8891 12.3562 10.8891C12.072 10.8891 11.7931 10.9873 11.571 11.1474C11.5606 11.1319 11.5503 11.1216 11.54 11.1061L9.81466 9.68553L11.4418 7.7071L3.5746 0L1.44637 2.93407C1.38438 2.9444 1.32756 2.97539 1.28624 3.02705C1.18809 3.14069 1.20875 3.31632 1.3224 3.40931L11.1887 11.5296C11.1887 11.5296 11.2042 11.5348 11.2094 11.54C11.0854 11.7414 11.0131 11.9739 11.0131 12.227C11.0131 12.4801 11.0854 12.7126 11.2094 12.914C11.1887 12.9295 11.1681 12.9399 11.1526 12.9605L9.71652 14.7065L7.71226 13.0587L0 20.9156L2.97023 23.0696L2.98056 23.0593C2.99606 23.1161 3.02188 23.1678 3.06837 23.2091C3.12003 23.2504 3.18202 23.2711 3.23884 23.2711C3.31632 23.2711 3.39381 23.2349 3.45063 23.1729L11.5658 13.3118C11.7879 13.4719 12.0565 13.5701 12.351 13.5701C12.6454 13.5701 12.9037 13.4771 13.1207 13.3221C13.1258 13.3273 13.131 13.3376 13.1413 13.3428L14.8821 14.7737L13.2395 16.7727C20.6829 24.0806 18.6683 22.0942 21.1015 24.4798Z" fill="#FEF2D7"/>
</svg>
