<svg width="134" height="71" viewBox="0 0 134 71" fill="none" xmlns="http://www.w3.org/2000/svg">
<path d="M34.57 19.4102L32.54 17.7402L32.03 5.72023L39.11 19.6902L41.57 19.5302L46.08 4.90023L48.03 16.7002L46.25 18.6202L46.29 19.2102L54.73 18.6402L54.69 18.0502L52.67 16.3802L50.43 2.75024L52.21 0.830231L52.17 0.240234L44.48 0.760231L41.69 14.8402L34.88 1.40023L28.4 1.84023L28.44 2.43024L30.7 4.06023L29.81 17.9302L28.03 19.8502L28.07 20.4402L34.61 20.0002L34.57 19.4102Z" fill="white"/>
<path d="M86.83 2.77L88.43 1.09L88.45 0.5L81.36 0.309998L81.35 0.899994L83.26 2.57L80.33 10.2L75.77 2.37L77.8 0.809998L77.82 0.219994L69.17 0L69.16 0.589996L70.64 2.35L76.2 11.92L76.08 16.32L74.13 18.07L74.12 18.67L82.65 18.89L82.67 18.3L80.81 16.45L80.93 11.77L86.83 2.77Z" fill="white"/>
<path d="M105.54 20.3701L106.76 4.2501L108.8 2.6001L108.84 2.01009L102.26 1.51009L102.21 2.1001L103.98 4.04009L104.53 14.4301L95.45 0.990097L90.2 0.600098L90.16 1.19009L92.11 3.8401L90.56 16.8101L88.52 18.4601L88.48 19.0501L95.07 19.5501L95.11 18.9601L93.35 17.0201L93.32 5.7101L103.1 20.1901L105.54 20.3701Z" fill="white"/>
<path d="M26.89 36.6603C26.45 36.0503 25.79 35.5503 24.92 35.1603C24.05 34.7703 22.91 34.4503 21.52 34.2103C19.82 33.9303 18.61 33.5903 17.87 33.1903C17.14 32.7903 16.73 32.2503 16.64 31.5603C16.56 30.9203 16.77 30.3703 17.26 29.8903C17.75 29.4203 18.43 29.1303 19.29 29.0203C19.64 28.9803 19.98 28.9703 20.34 28.9903L23.87 32.2003L24.52 32.1203L26.04 28.3103C24.99 27.8503 23.85 27.5203 22.65 27.3303C21.44 27.1403 20.3 27.1103 19.21 27.2503C17.05 27.5203 15.41 28.2303 14.28 29.3903C13.15 30.5503 12.69 31.9803 12.9 33.6903C13.01 34.6003 13.29 35.3703 13.74 35.9803C14.18 36.5903 14.84 37.0903 15.71 37.4803C16.58 37.8703 17.72 38.1903 19.11 38.4403C20.81 38.7203 22.02 39.0603 22.76 39.4603C23.49 39.8603 23.9 40.4003 23.99 41.0903C24.09 41.9303 23.9 42.6203 23.39 43.1503C22.89 43.6803 22.12 44.0003 21.08 44.1303C20.44 44.2103 19.83 44.2203 19.24 44.1503L15.76 40.9103L15.11 40.9903L13.82 44.9603C14.91 45.4503 16.07 45.7903 17.29 45.9703C18.51 46.1503 19.73 46.1603 20.96 46.0103C22.49 45.8203 23.79 45.4003 24.86 44.7603C25.93 44.1203 26.71 43.3003 27.21 42.3103C27.71 41.3203 27.88 40.2003 27.73 38.9603C27.62 38.0503 27.34 37.2803 26.89 36.6703V36.6603Z" fill="white"/>
<path d="M43.8801 38.1598L40.4701 41.9198L34.8101 42.6898L43.4601 25.9098L43.4101 25.3398L33.0401 26.1798L28.8301 26.1598L28.3101 26.1998L29.1901 31.2298L29.8401 31.1698L32.6101 27.8898L38.1601 27.0498L29.4701 43.9398L29.5101 44.5098L44.7601 43.2698L44.5301 38.1098L43.8801 38.1598Z" fill="white"/>
<path d="M52.5 42.3601L50.44 40.7801L51.2 37.7601L57.84 37.5401L59.27 40.4901L57.34 42.2001L57.36 42.7701L65.59 42.5001L65.57 41.9301L64.03 40.3401L56.54 24.8101L50.99 24.9901L51.01 25.5601L52.65 27.2501L47.15 40.8601L45.72 42.5801L45.74 43.1501L52.51 42.9301L52.49 42.3601H52.5ZM53.49 28.5101L57.13 36.0601L51.58 36.2401L53.49 28.5101Z" fill="white"/>
<path d="M81.25 25.9203C79.74 25.1703 77.95 24.7703 75.88 24.7203L67.02 24.5303V25.1003L68.82 26.8903L68.53 40.2303L66.64 41.9403V42.5103L75.02 42.6903C76.58 42.7203 78.02 42.5303 79.33 42.1103C80.64 41.6903 81.78 41.0803 82.74 40.2803C83.7 39.4803 84.46 38.5303 85 37.4103C85.55 36.2903 85.83 35.0603 85.86 33.7003C85.9 31.9303 85.51 30.3803 84.71 29.0503C83.91 27.7203 82.74 26.6803 81.23 25.9303L81.25 25.9203ZM79.22 39.2903C78.17 40.5903 76.75 41.2203 74.98 41.1803L73.1 41.1403L73.42 26.1803L75.35 26.2203C76.51 26.2403 77.51 26.5703 78.34 27.2103C79.17 27.8503 79.81 28.7303 80.25 29.8703C80.69 31.0103 80.9 32.3503 80.87 33.9003C80.82 36.1903 80.27 37.9903 79.22 39.2903Z" fill="white"/>
<path d="M101.8 39.2498L101.15 39.1998L97.4501 42.1098L93.0601 42.1198L93.5601 34.8698L96.8 35.2998L98.7701 37.3898L99.4201 37.4398L99.8101 31.7698L99.16 31.7198L96.91 33.5498L93.6501 33.5398L94.1101 26.8298L98.2501 27.3998L101.29 30.3298L101.94 30.3698L102.23 25.6898L101.74 25.6598L97.87 25.7598L87.7801 25.0698L87.7401 25.6398L89.4701 27.5098L88.55 40.8198L86.59 42.4298L86.55 43.0098L101.32 44.0198L101.8 39.2498Z" fill="white"/>
<path d="M114.65 45.4898L122.85 46.4598L122.92 45.8898L121.19 43.8498L115.94 33.8598L121.31 30.4598L124.38 29.1098L124.45 28.5398L116.11 27.5598L116.04 28.1298L117.19 29.7598L110.52 35.5798L111.26 29.3198L113.3 27.7998L113.37 27.2298L105.14 26.2598L105.07 26.8298L106.7 28.7798L105.14 42.0298L103.09 43.5498L103.03 44.1198L111.26 45.0898L111.32 44.5198L109.69 42.5698L110.3 37.4498L112.2 36.2298L116.04 43.4798L114.71 44.9198L114.65 45.4898Z" fill="white"/>
<path d="M3.25 58.0802L2.77 60.2002C2.68 60.6002 2.61 60.9702 2.56 61.3202H2.54C2.38 60.9502 2.22 60.6002 2.06 60.2802L1.08 58.3502L0 58.4802L0.53 62.7202L1.31 62.6202L1.04 60.4702C1 60.1302 0.94 59.7702 0.87 59.3802H0.9C0.95 59.4902 1.01 59.6202 1.08 59.7702C1.15 59.9102 1.22 60.0602 1.29 60.1902L2.47 62.4802L2.97 62.4202L3.55 59.9202C3.58 59.7702 3.62 59.6102 3.65 59.4602C3.68 59.3002 3.71 59.1602 3.73 59.0402H3.76C3.79 59.4602 3.82 59.8202 3.86 60.1402L4.13 62.2902L4.91 62.1902L4.38 57.9502L3.29 58.0902L3.25 58.0802Z" fill="white"/>
<path d="M10.42 62.6002C10.33 62.6102 10.26 62.6002 10.21 62.5702C10.16 62.5402 10.13 62.4902 10.12 62.4102C10.12 62.3402 10.12 62.2702 10.15 62.2002C10.18 62.1202 10.23 62.0402 10.29 61.9602C10.35 61.8802 10.43 61.8002 10.52 61.7202C10.61 61.6402 10.72 61.5702 10.84 61.5102L8.68001 57.4502L7.97001 57.5302L6.76001 61.9702L7.59001 61.8802L7.88001 60.7502L9.48001 60.5702L10.02 61.6102C9.83001 61.7902 9.69001 61.9602 9.60001 62.1202C9.52001 62.2802 9.48001 62.4502 9.50001 62.6302C9.51001 62.7302 9.54001 62.8202 9.59001 62.8902C9.64001 62.9602 9.70001 63.0202 9.77001 63.0602C9.84001 63.1002 9.93001 63.1302 10.02 63.1402C10.11 63.1502 10.22 63.1502 10.32 63.1402C10.43 63.1302 10.53 63.1102 10.62 63.0802C10.71 63.0502 10.79 63.0202 10.85 63.0002L10.79 62.4902C10.66 62.5502 10.54 62.5902 10.42 62.6102V62.6002ZM8.06001 60.0702L8.16001 59.6802C8.24001 59.3702 8.33001 58.9802 8.43001 58.5202H8.44001C8.64001 58.9402 8.81001 59.3002 8.96001 59.5902L9.15001 59.9502L8.05001 60.0702H8.06001Z" fill="white"/>
<path d="M15.66 56.71L14.69 56.81L13.28 58.91H13.27L13.07 56.98L12.29 57.06L12.73 61.31L13.5 61.23L13.31 59.31H13.32L15.24 61.05L16.23 60.95L14.1 59L15.66 56.71Z" fill="white"/>
<path d="M19.02 56.3998L17.72 60.8098L18.55 60.7299L18.87 59.6098L20.47 59.4598L20.98 60.5098L21.8 60.4398L19.73 56.3398L19.02 56.3998ZM20.16 58.8398L19.06 58.9398L19.17 58.5498C19.26 58.2398 19.36 57.8598 19.47 57.3998H19.48C19.67 57.8298 19.84 58.1898 19.98 58.4798L20.16 58.8498V58.8398Z" fill="white"/>
<path d="M23.35 61.6198L24.16 61.5598L24.67 59.3398L23.79 59.4198L23.35 61.6198Z" fill="white"/>
<path d="M32.8001 55.3198L31.8401 55.3898L30.3601 57.4398H30.3501L30.2101 55.4998L29.4301 55.5498L29.7301 59.8098L30.5101 59.7598L30.3701 57.8298H30.3901L32.2401 59.6398L33.2401 59.5698L31.1701 57.5498L32.8001 55.3198Z" fill="white"/>
<path d="M38 55.0098L34.47 55.2098L34.51 55.8698L35.88 55.7898L36.09 59.3998L36.88 59.3498L36.67 55.7398L38.04 55.6598L38 55.0098Z" fill="white"/>
<path d="M42.52 53.77L41.76 53.8L41.35 54.61L41.95 54.58L42.52 53.77Z" fill="white"/>
<path d="M43.24 55.2899C43.05 55.0999 42.83 54.9599 42.56 54.8599C42.3 54.7599 42 54.7199 41.67 54.7399C41.34 54.7599 41.05 54.8199 40.8 54.9399C40.55 55.0599 40.34 55.2199 40.17 55.4299C40 55.6299 39.88 55.8699 39.8 56.1499C39.72 56.4299 39.69 56.7299 39.7 57.0499C39.72 57.3799 39.78 57.6699 39.88 57.9399C39.99 58.2099 40.13 58.4299 40.32 58.6199C40.51 58.8099 40.73 58.9499 41 59.0499C41.26 59.1499 41.56 59.1899 41.89 59.1699C42.22 59.1599 42.51 59.0899 42.76 58.9699C43.01 58.8499 43.22 58.6899 43.39 58.4799C43.56 58.2799 43.68 58.0399 43.76 57.7599C43.84 57.4799 43.87 57.1799 43.86 56.8599C43.84 56.5299 43.78 56.2399 43.68 55.9699C43.58 55.6999 43.43 55.4799 43.24 55.2899ZM42.99 57.5799C42.94 57.7799 42.86 57.9399 42.75 58.0799C42.64 58.2099 42.51 58.3199 42.36 58.3899C42.21 58.4599 42.04 58.4999 41.85 58.5099C41.67 58.5099 41.49 58.4899 41.33 58.4399C41.17 58.3799 41.03 58.2899 40.92 58.1699C40.81 58.0499 40.71 57.8899 40.63 57.6999C40.56 57.5099 40.51 57.2799 40.5 57.0199C40.49 56.7599 40.5 56.5299 40.56 56.3299C40.61 56.1299 40.7 55.9699 40.8 55.8299C40.91 55.6899 41.04 55.5899 41.19 55.5199C41.34 55.4499 41.51 55.4099 41.7 55.3999C41.89 55.3999 42.06 55.4099 42.22 55.4699C42.38 55.5299 42.52 55.6199 42.64 55.7399C42.76 55.8599 42.86 56.0199 42.93 56.2099C43 56.3999 43.04 56.6299 43.06 56.8899C43.07 57.1499 43.06 57.3799 43 57.5699L42.99 57.5799Z" fill="white"/>
<path d="M48.5701 58.8101L49.5101 58.7801L48.1701 57.0701C48.5101 56.9501 48.7601 56.7801 48.9201 56.5701C49.0801 56.3601 49.1501 56.1001 49.1401 55.8001C49.1301 55.5101 49.0501 55.2801 48.9101 55.1001C48.7701 54.9201 48.5701 54.7801 48.3101 54.6901C48.1801 54.6501 48.0201 54.6201 47.8301 54.6001C47.6401 54.5801 47.4401 54.5801 47.2301 54.5901L45.9301 54.6401L46.0901 58.9101L46.8701 58.8801L46.8101 57.2301L47.3501 57.2101L48.5701 58.8201V58.8101ZM46.7901 56.5701L46.7401 55.2601L47.3001 55.2401C47.4701 55.2401 47.6101 55.2401 47.7201 55.2401C47.8301 55.2501 47.9301 55.2701 48.0001 55.3001C48.1201 55.3501 48.2001 55.4101 48.2501 55.5001C48.3001 55.5901 48.3301 55.6901 48.3301 55.8001C48.3301 55.9301 48.3101 56.0501 48.2501 56.1601C48.1901 56.2701 48.0901 56.3501 47.9301 56.4201C47.8501 56.4601 47.7401 56.4801 47.6201 56.5001C47.5001 56.5201 47.3401 56.5301 47.1701 56.5401H46.7801L46.7901 56.5701Z" fill="white"/>
<path d="M55.19 58.6201L53.38 54.3901L52.67 54.4101L51.09 58.7301L51.92 58.7101L52.31 57.6101L53.92 57.5701L54.37 58.6501L55.2 58.6301L55.19 58.6201ZM52.55 56.9401L52.69 56.5601C52.8 56.2601 52.92 55.8801 53.06 55.4301H53.07C53.23 55.8701 53.37 56.2401 53.5 56.5401L53.66 56.9201L52.56 56.9501L52.55 56.9401Z" fill="white"/>
<path d="M62.52 57.8498L60.52 57.8798L60.5 56.5998L61.6 56.1698L61.59 55.4998L60.49 55.9298L60.46 54.2598L59.68 54.2698L59.71 56.2298L59.25 56.3998L59.26 57.0798L59.73 56.8998L59.75 58.5498L62.53 58.4998L62.52 57.8498Z" fill="white"/>
<path d="M67.59 60.0302C67.7 60.0302 67.8 60.0202 67.89 60.0002C67.98 59.9802 68.06 59.9602 68.12 59.9402V59.4202C67.98 59.4702 67.85 59.5002 67.73 59.5002C67.64 59.5002 67.57 59.4902 67.52 59.4502C67.47 59.4102 67.45 59.3602 67.44 59.2802C67.44 59.2102 67.46 59.1402 67.49 59.0702C67.53 58.9902 67.58 58.9202 67.65 58.8502C67.72 58.7802 67.8 58.7102 67.9 58.6402C68 58.5702 68.11 58.5102 68.24 58.4602L66.48 54.2202H65.77L64.14 58.5302H64.97L65.37 57.4202L66.98 57.3902L67.41 58.4702C67.2 58.6302 67.04 58.7902 66.95 58.9402C66.85 59.0902 66.8 59.2602 66.8 59.4402C66.8 59.5402 66.82 59.6302 66.86 59.7102C66.9 59.7902 66.95 59.8502 67.02 59.9002C67.09 59.9502 67.17 59.9902 67.26 60.0102C67.35 60.0302 67.45 60.0402 67.56 60.0402L67.59 60.0302ZM65.63 56.7602L65.77 56.3802C65.88 56.0802 66.01 55.7002 66.15 55.2502H66.16C66.31 55.6902 66.45 56.0602 66.58 56.3602L66.73 56.7402L65.63 56.7602Z" fill="white"/>
<path d="M72.63 58.5699C72.8 58.5499 72.96 58.5199 73.11 58.4799V57.8099C72.97 57.8599 72.82 57.8899 72.65 57.9099C72.48 57.9299 72.32 57.9399 72.15 57.9399C71.92 57.9399 71.72 57.8999 71.55 57.8299C71.37 57.7599 71.22 57.6599 71.1 57.5299C70.98 57.3999 70.89 57.2399 70.82 57.0499C70.76 56.8599 70.73 56.6399 70.73 56.3899C70.73 56.1399 70.77 55.9099 70.85 55.7199C70.93 55.5299 71.03 55.3599 71.16 55.2299C71.29 55.0999 71.45 54.9999 71.63 54.9299C71.81 54.8599 72.01 54.8299 72.22 54.8299C72.36 54.8299 72.5 54.8399 72.65 54.8699C72.8 54.8899 72.95 54.9299 73.12 54.9899V54.3299C73 54.2799 72.86 54.2499 72.69 54.2199C72.53 54.1899 72.36 54.1799 72.18 54.1699C71.83 54.1699 71.51 54.2199 71.23 54.3299C70.95 54.4399 70.71 54.5999 70.52 54.7999C70.33 54.9999 70.18 55.2399 70.08 55.5199C69.98 55.7999 69.92 56.0999 69.92 56.4199C69.92 56.7399 69.96 57.0299 70.04 57.2899C70.13 57.5499 70.26 57.7799 70.44 57.9699C70.62 58.1599 70.85 58.3099 71.12 58.4199C71.39 58.5299 71.71 58.5799 72.07 58.5899C72.26 58.5899 72.43 58.5899 72.61 58.5599L72.63 58.5699Z" fill="white"/>
<path d="M74.98 58.5503L78.33 58.6103L78.34 57.9603L76.03 57.9103L78.37 54.7603L78.38 54.3403L75.11 54.2803L75.1 54.9303L77.33 54.9803L74.98 58.1303V58.5503Z" fill="white"/>
<path d="M83.26 54.4699L82.07 56.2799H82.06L80.97 54.4099L80.11 54.3799L81.65 56.9799L81.6 58.6999L82.38 58.7199L82.43 56.9999L84.12 54.4899L83.26 54.4699Z" fill="white"/>
<path d="M90.89 54.8699C90.77 54.8299 90.63 54.7899 90.48 54.7699C90.33 54.7499 90.15 54.7299 89.94 54.7199L88.71 54.6699L88.52 58.9399L89.3 58.9699L89.37 57.2999C89.43 57.2999 89.49 57.3199 89.56 57.3199C89.63 57.3199 89.7 57.3199 89.77 57.3299C90.08 57.3399 90.35 57.3299 90.59 57.2699C90.83 57.2199 91.03 57.1399 91.2 57.0299C91.37 56.9199 91.5 56.7899 91.59 56.6299C91.68 56.4699 91.73 56.2899 91.74 56.0799C91.75 55.7799 91.69 55.5299 91.54 55.3199C91.39 55.1199 91.17 54.9599 90.89 54.8599V54.8699ZM90.87 56.3099C90.83 56.3999 90.76 56.4699 90.67 56.5199C90.58 56.5799 90.46 56.6199 90.32 56.6499C90.18 56.6799 90 56.6899 89.79 56.6799C89.72 56.6799 89.64 56.6799 89.58 56.6699C89.51 56.6699 89.45 56.6599 89.41 56.6499L89.47 55.3599L89.91 55.3799C90.07 55.3799 90.2 55.3999 90.31 55.4199C90.42 55.4399 90.51 55.4599 90.58 55.4899C90.72 55.5499 90.82 55.6199 90.87 55.7199C90.92 55.8099 90.95 55.9199 90.94 56.0499C90.94 56.1499 90.91 56.2499 90.87 56.3299V56.3099Z" fill="white"/>
<path d="M97.3701 55.6298C97.2001 55.4298 96.9901 55.2599 96.7401 55.1399C96.4901 55.0199 96.2001 54.9499 95.8701 54.9299C95.5401 54.9099 95.2501 54.9498 94.9801 55.0398C94.7201 55.1298 94.4901 55.2699 94.3001 55.4599C94.1101 55.6499 93.9601 55.8699 93.8601 56.1399C93.7501 56.4099 93.6901 56.6999 93.6701 57.0299C93.6501 57.3599 93.6801 57.6599 93.7601 57.9299C93.8401 58.2099 93.9601 58.4498 94.1301 58.6498C94.3001 58.8598 94.5101 59.0199 94.7601 59.1399C95.0101 59.2599 95.3001 59.3299 95.6301 59.3499C95.9601 59.3699 96.2601 59.3299 96.5201 59.2399C96.7801 59.1498 97.0101 59.0099 97.2001 58.8199C97.3901 58.6299 97.5401 58.4099 97.6401 58.1399C97.7501 57.8699 97.8101 57.5799 97.8301 57.2499C97.8501 56.9199 97.8201 56.6199 97.7401 56.3499C97.6601 56.0699 97.5401 55.8298 97.3701 55.6298ZM96.8901 57.8899C96.8201 58.0799 96.7201 58.2398 96.6001 58.3598C96.4801 58.4798 96.3401 58.5698 96.1801 58.6298C96.0201 58.6898 95.8501 58.7098 95.6601 58.6998C95.4801 58.6898 95.3101 58.6498 95.1601 58.5798C95.0101 58.5098 94.8801 58.3998 94.7701 58.2698C94.6701 58.1298 94.5901 57.9698 94.5301 57.7698C94.4801 57.5698 94.4601 57.3398 94.4701 57.0798C94.4801 56.8198 94.5301 56.5998 94.6001 56.3998C94.6701 56.2098 94.7701 56.0499 94.8901 55.9299C95.0101 55.8099 95.1501 55.7198 95.3101 55.6598C95.4701 55.5998 95.6401 55.5798 95.8201 55.5898C96.0001 55.5998 96.1701 55.6399 96.3201 55.7099C96.4701 55.7799 96.6001 55.8898 96.7101 56.0198C96.8201 56.1598 96.8901 56.3198 96.9501 56.5198C97.0001 56.7198 97.0201 56.9499 97.0101 57.2099C97.0001 57.4699 96.9501 57.6899 96.8801 57.8899H96.8901Z" fill="white"/>
<path d="M102.51 55.4198L100.78 57.2498H100.76L100.89 55.3098L100.11 55.2598L99.83 59.5198L100.61 59.5698L100.74 57.6498H100.75L102.35 59.6898L103.35 59.7498L101.56 57.4798L103.48 55.4798L102.51 55.4198Z" fill="white"/>
<path d="M108.65 56.4103C108.49 56.2003 108.28 56.0303 108.03 55.9003C107.78 55.7703 107.49 55.7003 107.16 55.6703C106.83 55.6403 106.53 55.6703 106.27 55.7703C106 55.8603 105.78 55.9903 105.58 56.1703C105.39 56.3503 105.24 56.5703 105.12 56.8403C105.01 57.1003 104.94 57.4003 104.91 57.7203C104.88 58.0503 104.91 58.3503 104.98 58.6203C105.05 58.9003 105.17 59.1403 105.33 59.3503C105.49 59.5603 105.7 59.7303 105.95 59.8503C106.2 59.9803 106.49 60.0603 106.82 60.0803C107.15 60.1103 107.45 60.0803 107.71 59.9803C107.98 59.8903 108.21 59.7603 108.4 59.5803C108.59 59.4003 108.74 59.1803 108.86 58.9103C108.97 58.6503 109.04 58.3503 109.07 58.0303C109.09 57.7003 109.07 57.4003 109 57.1303C108.93 56.8503 108.81 56.6103 108.65 56.4003V56.4103ZM108.12 58.6503C108.04 58.8403 107.94 58.9903 107.82 59.1103C107.7 59.2303 107.56 59.3203 107.4 59.3703C107.24 59.4203 107.07 59.4403 106.88 59.4303C106.7 59.4203 106.53 59.3703 106.38 59.2903C106.23 59.2103 106.1 59.1103 106 58.9703C105.9 58.8303 105.82 58.6703 105.77 58.4703C105.72 58.2703 105.71 58.0403 105.73 57.7803C105.75 57.5203 105.8 57.3003 105.88 57.1103C105.96 56.9203 106.06 56.7703 106.18 56.6503C106.3 56.5303 106.44 56.4403 106.6 56.3903C106.76 56.3403 106.93 56.3203 107.12 56.3303C107.3 56.3403 107.47 56.3903 107.62 56.4603C107.77 56.5403 107.9 56.6403 108 56.7803C108.1 56.9203 108.18 57.0903 108.23 57.2903C108.28 57.4903 108.29 57.7203 108.27 57.9803C108.25 58.2403 108.2 58.4603 108.12 58.6503Z" fill="white"/>
<path d="M112.17 56.1598L111.39 56.0898L111.02 60.3498L113.79 60.5899L113.85 59.9398L111.86 59.7698L112.17 56.1598Z" fill="white"/>
<path d="M115.81 60.7803L118.68 61.0603L118.75 60.4103L116.65 60.2003L116.77 59.0003L118.47 59.1703L118.53 58.5203L116.83 58.3503L116.94 57.2503L118.92 57.4403L118.98 56.7903L116.22 56.5303L115.81 60.7803Z" fill="white"/>
<path d="M123.99 59.26C123.96 59.51 123.93 59.91 123.9 60.47H123.88C123.73 60.11 123.52 59.7 123.26 59.23L122.08 57.11L121.26 57.02L120.8 61.27L121.58 61.35L121.79 59.43C121.82 59.14 121.85 58.74 121.88 58.22H121.9C122.11 58.7 122.32 59.12 122.53 59.48L123.7 61.58L124.52 61.67L124.98 57.42L124.2 57.34L123.99 59.26Z" fill="white"/>
<path d="M127.325 57.7025L126.827 61.9434L127.601 62.0344L128.1 57.7935L127.325 57.7025Z" fill="white"/>
<path d="M132.41 58.3102L131.7 58.2202L129.49 62.2502L130.32 62.3502L130.87 61.3202L132.47 61.5202L132.75 62.6502L133.57 62.7502L132.42 58.3002L132.41 58.3102ZM131.2 60.7002L131.39 60.3402C131.54 60.0602 131.72 59.7002 131.93 59.2802H131.94C132.03 59.7402 132.12 60.1302 132.2 60.4402L132.3 60.8402L131.2 60.7002Z" fill="white"/>
<path d="M51.59 65.89C51.41 65.69 51.19 65.54 50.94 65.43C50.68 65.32 50.39 65.27 50.06 65.27C49.73 65.27 49.44 65.32 49.18 65.43C48.92 65.54 48.7 65.69 48.53 65.89C48.35 66.09 48.22 66.32 48.13 66.59C48.04 66.86 47.99 67.16 47.99 67.49C47.99 67.82 48.04 68.11 48.13 68.39C48.22 68.66 48.36 68.9 48.53 69.09C48.71 69.29 48.93 69.44 49.18 69.55C49.44 69.66 49.73 69.71 50.06 69.71C50.39 69.71 50.68 69.66 50.94 69.55C51.2 69.44 51.42 69.29 51.59 69.09C51.77 68.89 51.9 68.66 52 68.39C52.09 68.12 52.14 67.82 52.14 67.49C52.14 67.16 52.09 66.87 52 66.59C51.91 66.32 51.77 66.09 51.59 65.89ZM51.23 68.16C51.17 68.36 51.08 68.52 50.97 68.65C50.86 68.78 50.72 68.88 50.57 68.94C50.42 69 50.24 69.04 50.06 69.04C49.88 69.04 49.7 69.01 49.55 68.94C49.39 68.88 49.26 68.78 49.15 68.65C49.04 68.52 48.95 68.36 48.89 68.16C48.83 67.97 48.79 67.74 48.79 67.48C48.79 67.22 48.82 66.99 48.89 66.8C48.95 66.61 49.04 66.44 49.15 66.31C49.26 66.18 49.4 66.08 49.55 66.02C49.71 65.96 49.88 65.92 50.06 65.92C50.24 65.92 50.42 65.95 50.57 66.02C50.73 66.08 50.86 66.18 50.97 66.31C51.08 66.44 51.17 66.6 51.23 66.8C51.29 67 51.33 67.22 51.33 67.48C51.33 67.74 51.3 67.97 51.23 68.16Z" fill="white"/>
<path d="M57.59 66.2301C57.47 66.0601 57.33 65.9201 57.15 65.7901C56.98 65.6701 56.77 65.5701 56.55 65.5001C56.47 65.4701 56.39 65.4501 56.3 65.4301C56.21 65.4101 56.11 65.4001 56.02 65.3801C55.92 65.3701 55.82 65.3601 55.72 65.3501C55.62 65.3501 55.52 65.3501 55.42 65.3501H54.29V69.6201H55.31C55.6 69.6201 55.86 69.6001 56.09 69.5701C56.32 69.5401 56.53 69.4901 56.71 69.4201C56.93 69.3401 57.11 69.2401 57.27 69.1101C57.43 68.9801 57.56 68.8401 57.66 68.6701C57.76 68.5001 57.84 68.3201 57.89 68.1201C57.94 67.9201 57.97 67.7001 57.97 67.4701C57.97 67.2301 57.94 67.0001 57.88 66.7901C57.82 66.5801 57.73 66.3901 57.61 66.2301H57.59ZM56.97 68.2901C56.85 68.5001 56.68 68.6701 56.45 68.7801C56.19 68.9101 55.84 68.9701 55.38 68.9701H55.06V66.0101H55.41C55.6 66.0101 55.76 66.0201 55.91 66.0401C56.06 66.0601 56.19 66.1001 56.32 66.1401C56.45 66.1901 56.57 66.2601 56.67 66.3301C56.77 66.4101 56.86 66.5001 56.93 66.6101C57 66.7201 57.06 66.8501 57.1 66.9901C57.14 67.1301 57.16 67.2901 57.16 67.4601C57.16 67.7901 57.1 68.0701 56.98 68.2801L56.97 68.2901Z" fill="white"/>
<path d="M64.35 66.5303H63.77L62.52 66.9703V67.6403L63.6 67.3303V68.9803H62.58V69.6203H65.25V68.9803H64.35V66.5303Z" fill="white"/>
<path d="M69.6699 66.98C69.5399 66.81 69.3799 66.68 69.1799 66.59C68.9899 66.5 68.7699 66.46 68.5099 66.46C68.2799 66.46 68.0799 66.5 67.8999 66.57C67.7199 66.64 67.5699 66.74 67.4499 66.87C67.3299 67 67.2299 67.15 67.1699 67.32C67.1099 67.49 67.0699 67.68 67.0699 67.88C67.0699 68.09 67.1099 68.28 67.1799 68.44C67.2499 68.6 67.3399 68.74 67.4699 68.85C67.5899 68.96 67.7299 69.04 67.8999 69.1C68.0599 69.16 68.2399 69.18 68.4299 69.18C68.5799 69.18 68.7299 69.17 68.8699 69.14C69.0099 69.11 69.1399 69.07 69.2499 69.01H69.2599C69.1999 69.46 69.0699 69.78 68.8699 69.98C68.6699 70.18 68.3899 70.29 68.0499 70.29C67.9099 70.29 67.7699 70.27 67.6099 70.24C67.4499 70.21 67.2999 70.15 67.1699 70.09V70.75C67.2899 70.81 67.4399 70.86 67.5999 70.89C67.7599 70.92 67.9299 70.94 68.1199 70.94C68.3599 70.94 68.5699 70.91 68.7599 70.85C68.9499 70.79 69.1199 70.7 69.2599 70.59C69.4099 70.48 69.5299 70.35 69.6299 70.2C69.7299 70.05 69.8199 69.88 69.8899 69.7C69.9599 69.52 70.0099 69.32 70.0399 69.12C70.0699 68.91 70.0899 68.7 70.0899 68.48C70.0899 68.15 70.0599 67.87 69.9899 67.61C69.9199 67.36 69.8199 67.15 69.6899 66.97L69.6699 66.98ZM68.9199 68.49C68.7899 68.52 68.6599 68.53 68.5299 68.53C68.4299 68.53 68.3399 68.52 68.2599 68.49C68.1799 68.47 68.1099 68.43 68.0499 68.37C67.9899 68.31 67.9399 68.24 67.9099 68.15C67.8799 68.06 67.8599 67.95 67.8599 67.82C67.8599 67.7 67.8799 67.59 67.9099 67.5C67.9399 67.41 67.9899 67.33 68.0399 67.27C68.0999 67.21 68.1699 67.16 68.2399 67.13C68.3199 67.1 68.3999 67.09 68.4999 67.09C68.6099 67.09 68.7199 67.11 68.8099 67.16C68.8999 67.21 68.9799 67.28 69.0499 67.37C69.1199 67.47 69.1699 67.6 69.2099 67.76C69.2499 67.92 69.2699 68.12 69.2799 68.35C69.1699 68.41 69.0399 68.45 68.9099 68.48L68.9199 68.49Z" fill="white"/>
<path d="M73.19 69.0002C73.37 68.8702 73.53 68.7502 73.68 68.6302C73.83 68.5102 73.96 68.3902 74.07 68.2702C74.18 68.1502 74.27 68.0202 74.33 67.8902C74.39 67.7602 74.42 67.6102 74.42 67.4602C74.42 67.2902 74.39 67.1502 74.33 67.0202C74.27 66.8902 74.18 66.7902 74.08 66.7002C73.97 66.6102 73.84 66.5502 73.69 66.5002C73.54 66.4602 73.37 66.4302 73.19 66.4302C73.07 66.4302 72.95 66.4302 72.84 66.4602C72.73 66.4802 72.62 66.5002 72.52 66.5302C72.42 66.5602 72.33 66.5902 72.24 66.6302C72.15 66.6702 72.08 66.7002 72.01 66.7402V67.3802C72.21 67.2802 72.4 67.2102 72.58 67.1602C72.77 67.1102 72.93 67.0902 73.09 67.0902C73.17 67.0902 73.24 67.0902 73.31 67.1102C73.38 67.1202 73.44 67.1502 73.49 67.1802C73.54 67.2102 73.58 67.2602 73.61 67.3102C73.64 67.3602 73.65 67.4202 73.65 67.5002C73.65 67.6202 73.61 67.7502 73.51 67.8802C73.42 68.0102 73.3 68.1402 73.15 68.2702C73 68.4102 72.82 68.5502 72.62 68.6902C72.42 68.8402 72.21 68.9902 71.98 69.1402V69.6002H74.69V68.9602H73.85C73.71 68.9602 73.49 68.9602 73.2 68.9902L73.19 69.0002Z" fill="white"/>
<path d="M78.38 66.5303H77.79L76.54 66.9703V67.6403L77.62 67.3303V68.9803H76.61V69.6203H79.28V68.9803H78.38V66.5303Z" fill="white"/>
<path d="M84.95 66.5802C84.79 66.6702 84.67 66.7902 84.58 66.9502H84.57L84.5 66.5202H83.87V69.6102H84.63V67.5402C84.73 67.4002 84.86 67.2902 85.04 67.2202C85.22 67.1502 85.42 67.1202 85.65 67.1202H85.71V66.4602C85.65 66.4602 85.59 66.4502 85.51 66.4502C85.29 66.4502 85.1 66.4902 84.95 66.5902V66.5802Z" fill="white"/>
<path d="M88.08 68.77H87.22V69.62H88.08V68.77Z" fill="white"/>
<path d="M56.1 18.7901L70.95 18.5501L70.88 12.8301L70.21 12.8401L66.6 16.9501L62.71 17.3101L62.58 9.61012L66.93 7.81012L66.91 6.18012L62.56 7.98012L62.47 2.54012L64.4 0.710121L64.39 0.120117L55.79 0.260117L55.8 0.850121L57.74 2.62012L57.86 9.92012L55.96 10.7001L55.99 12.3401L57.89 11.5601L57.96 16.3701L56.09 18.2001L56.1 18.7901Z" fill="white"/>
</svg>
