<svg width="94" height="61" viewBox="0 0 94 61" fill="none" xmlns="http://www.w3.org/2000/svg">
<path d="M92.6259 39.4569L91.1198 40.4537V33.9744C91.1198 33.7252 90.8688 33.2268 90.6178 32.9776C90.3668 32.7284 90.1157 32.7284 89.8647 32.9776L84.5933 36.7157C84.5933 36.7157 84.5933 36.7157 84.3423 36.7157L67.524 48.4281C67.273 48.6773 67.022 48.9265 67.022 49.4249V57.1502L64.7628 58.8946V49.1757C64.7628 48.6773 65.0139 48.1789 65.5159 47.6805L92.6259 28.492V39.4569ZM64.5118 46.1853L4.01632 44.6901L9.78974 40.7029C10.5428 40.2045 11.2959 39.9553 12.0489 39.9553L71.2893 41.4505L64.5118 46.1853ZM64.2608 58.8946L59.4915 58.6454V52.1661C59.4915 51.6677 58.9894 51.1693 58.7384 51.1693L35.1426 50.4217C34.6406 50.4217 34.3896 50.9201 34.3896 51.4185V57.6486H29.8712V51.4185C29.8712 50.9201 29.3692 50.4217 29.1182 50.4217L7.02853 49.4249C6.5265 49.4249 6.27547 49.9233 6.27547 50.4217V57.1502H1.75714V46.6837L63.0057 48.1789C63.5078 48.1789 64.0098 48.6773 64.0098 49.1757L64.2608 58.8946ZM18.8264 34.2236C19.8305 33.476 20.8346 33.2268 22.0897 33.2268L81.5811 34.722L74.5526 39.7061L13.806 37.9617L18.8264 34.2236ZM27.6121 27.4952C28.1141 26.9968 29.1182 26.7476 29.8712 26.7476L91.1198 28.2428L84.8444 32.23H84.5933L23.5958 30.7348L27.6121 27.4952ZM93.881 27.9936V27.7444C93.881 27.7444 93.881 27.7444 93.881 27.4952C93.881 27.4952 93.881 27.246 93.63 27.246H93.379L29.3692 26C29.1182 26 29.1182 26 28.8672 26.2492L10.0408 37.9617L0.251034 44.6901C0.251034 44.6901 0.251019 44.9393 0 44.9393V57.6486C0 58.147 0.502045 58.6454 0.753064 58.6454H7.02853C7.27955 58.6454 7.27955 58.6454 7.27955 58.6454L10.5428 56.4026C10.7938 56.1534 11.0448 55.9042 11.0448 55.4058V50.9201L27.8631 51.6677V57.8978C27.8631 58.3962 28.3651 58.8946 28.6161 58.8946H34.6406C34.8916 58.8946 35.1426 58.8946 35.1426 58.6454L38.1549 56.6518C38.4059 56.4026 38.6569 56.1534 38.6569 55.655V51.6677L57.4833 52.1661V58.6454C57.4833 59.1438 57.9853 59.6422 58.2364 59.6422L64.5118 60.1406C64.7629 60.1406 64.7628 60.1406 65.0139 60.1406L68.2771 57.8978C68.5281 57.6486 68.7791 57.3994 68.7791 56.901V49.1757L83.8403 38.7093C86.8525 36.2173 87.1035 36.4665 89.1117 34.9712V36.7157C87.8566 37.7125 85.8484 38.7093 83.8403 39.9553V41.4505C83.8403 41.9489 84.3423 42.4473 84.5933 42.4473H89.8647C90.1157 42.4473 90.1157 42.4473 90.3668 42.1981L93.128 39.9553C93.379 39.7061 93.63 39.4569 93.63 38.9585L93.881 27.9936Z" fill="#795D48"/>
</svg>
