<svg width="71" height="56" viewBox="0 0 71 56" fill="none" xmlns="http://www.w3.org/2000/svg">
<path d="M2.84 55.357C11.76 53.2109 23.58 52.5426 35.31 52.5426C47.04 52.5426 58.68 53.2015 67.57 55.3005C67.72 55.3382 68.1 55.4229 68.54 55.517L70.37 54.8487C69.65 54.5852 68.33 54.2934 68.08 54.2275C62.52 52.8438 56.05 51.6295 49.13 50.8859L46.87 40.833L50.96 44.6075L55.13 39.1951C55.23 39.1575 55.33 39.1198 55.4 39.0351C55.59 38.828 55.55 38.508 55.33 38.3386L36.24 23.551C36.48 23.1839 36.63 22.7509 36.63 22.2802C36.63 21.8096 36.48 21.3672 36.23 20.9907C36.25 20.9718 36.28 20.9624 36.3 20.9342L39.1 17.7338L42.82 20.6142L57.75 6.2972L52.08 2.42852C52.05 2.36263 52 2.30615 51.94 2.2685C51.72 2.08965 51.38 2.12731 51.2 2.33439L35.51 20.2847C35.09 20.0117 34.58 19.8423 34.03 19.8423C33.48 19.8423 32.94 20.0211 32.51 20.3129C32.49 20.2847 32.47 20.2659 32.45 20.2376L29.11 17.6491L32.26 14.044L17.03 0L12.91 5.3465C12.79 5.36533 12.68 5.42181 12.6 5.51593C12.41 5.72302 12.45 6.04305 12.67 6.21249L31.77 21.0095C31.77 21.0095 31.8 21.0189 31.81 21.0283C31.57 21.3954 31.43 21.819 31.43 22.2802C31.43 22.7415 31.57 23.165 31.81 23.5321C31.77 23.5604 31.73 23.5792 31.7 23.6169L28.92 26.7984L25.04 23.7957L10.11 38.1127L15.86 42.0378L15.88 42.019C15.91 42.1225 15.96 42.2167 16.05 42.292C16.15 42.3673 16.27 42.4049 16.38 42.4049C16.53 42.4049 16.68 42.339 16.79 42.2261L32.5 24.2569C32.93 24.5487 33.45 24.7276 34.02 24.7276C34.59 24.7276 35.09 24.5581 35.51 24.2758C35.52 24.2852 35.53 24.304 35.55 24.3134L38.92 26.9208L35.74 30.5635L45.07 39.1857L46.77 50.66C43.04 50.3211 39.19 50.1329 35.3 50.1329C30.76 50.1329 26.27 50.3964 21.96 50.8388L24.96 34.6299C24.96 34.6299 22.2 37.6797 22.1 38.2633L18.77 51.2154C12.78 51.9778 7.19 53.0697 2.31 54.2934C2.16 54.331 1.11 54.6605 0 55.0276L1.69 55.6017C2.27 55.4888 2.71 55.3947 2.83 55.357H2.84Z" fill="#795D48"/>
</svg>
