<svg width="16" height="16" viewBox="0 0 16 16" fill="none" xmlns="http://www.w3.org/2000/svg">
<path d="M13.526 15.6915L14.9068 13.7876C14.9399 13.7744 14.973 13.7611 14.9962 13.7313C15.0591 13.6585 15.0459 13.5459 14.973 13.4863L8.65204 8.2845C8.7315 8.15536 8.78117 8.00305 8.78117 7.83749C8.78117 7.67193 8.7315 7.51631 8.64872 7.38386C8.65535 7.37724 8.66528 7.37393 8.6719 7.364L9.59902 6.23821L10.8308 7.25142L15.7743 2.21516L13.8969 0.854277C13.887 0.831098 13.8704 0.811232 13.8505 0.797987C13.7777 0.735075 13.6651 0.74832 13.6055 0.821165L8.41032 7.13553C8.27125 7.0395 8.10238 6.9799 7.92027 6.9799C7.73816 6.9799 7.55935 7.04281 7.41697 7.14546C7.41035 7.13553 7.40373 7.1289 7.39711 7.11897L6.29118 6.20841L7.3342 4.94024L2.29131 0L0.927122 1.88073C0.887388 1.88736 0.850965 1.90722 0.824476 1.94033C0.761564 2.01318 0.774808 2.12576 0.847654 2.18536L7.17195 7.39049C7.17195 7.39049 7.18188 7.3938 7.18519 7.39711C7.10573 7.52624 7.05937 7.67524 7.05937 7.83749C7.05937 7.99974 7.10573 8.14874 7.18519 8.27787C7.17195 8.28781 7.1587 8.29443 7.14877 8.30767L6.22827 9.42684L4.94355 8.37059L0 13.4068L1.90391 14.7876L1.91053 14.781C1.92047 14.8174 1.93702 14.8505 1.96682 14.877C1.99993 14.9035 2.03967 14.9167 2.07609 14.9167C2.12576 14.9167 2.17542 14.8936 2.21185 14.8538L7.41366 8.53283C7.55604 8.63548 7.72822 8.69839 7.91696 8.69839C8.10569 8.69839 8.27125 8.63879 8.41032 8.53945C8.41363 8.54277 8.41694 8.54939 8.42356 8.5527L9.53942 9.46989L8.48648 10.7513C13.2577 15.4356 11.9663 14.1623 13.526 15.6915Z" fill="white"/>
</svg>
