<svg width="341" height="139" viewBox="0 0 341 139" fill="none" xmlns="http://www.w3.org/2000/svg">
<path d="M19.2473 77.0523C19.3808 76.2513 19.5366 75.3613 19.7368 74.4267L20.8716 69.4427L23.4303 69.1312L24.6763 79.0993L22.8518 79.3218L22.2288 74.271C22.1398 73.5367 22.0508 72.669 22.0063 71.69H21.9396C21.8951 72.0015 21.8283 72.313 21.7616 72.6912C21.6948 73.0695 21.6058 73.4255 21.5391 73.7815L20.1818 79.6778L19.0026 79.8335L16.2435 74.449C16.0878 74.1153 15.9098 73.7815 15.754 73.4477C15.5983 73.114 15.4648 72.8025 15.3313 72.5355H15.2645C15.4425 73.4477 15.576 74.3155 15.665 75.0943L16.288 80.145L14.4635 80.3675L13.2175 70.3995L15.7763 70.088L18.0903 74.627C18.4686 75.3835 18.8468 76.1845 19.2251 77.0745H19.2696L19.2473 77.0523Z" fill="#795D48"/>
<path d="M38.7382 77.4973C38.4489 77.653 38.2042 77.831 38.0039 78.009C37.7814 78.187 37.6034 78.365 37.4477 78.5653C37.2919 78.7433 37.1807 78.9435 37.1139 79.1215C37.0472 79.2995 37.0249 79.4775 37.0249 79.6333C37.0249 79.8113 37.1139 79.9448 37.2474 80.0115C37.3809 80.0783 37.5367 80.1005 37.7369 80.0783C38.0262 80.056 38.3154 79.9448 38.6047 79.8113L38.7382 81.0128C38.6047 81.0795 38.4267 81.1463 38.2042 81.213C37.9817 81.2798 37.7592 81.3243 37.4922 81.3465C37.2474 81.3688 37.0027 81.3688 36.7802 81.3465C36.5577 81.3243 36.3574 81.2575 36.1794 81.1463C36.0014 81.035 35.8679 80.9238 35.7567 80.7458C35.6454 80.5678 35.5787 80.3675 35.5564 80.145C35.5119 79.7223 35.6009 79.3218 35.8012 78.9435C36.0014 78.5653 36.3352 78.1648 36.7802 77.742L35.5119 75.3167L31.7516 75.7395L31.0619 78.3873L29.1039 78.6098L31.9519 68.1745L33.6207 67.9965L38.6937 77.5418L38.7382 77.4973ZM33.0644 70.4662C32.8419 71.5565 32.6194 72.4465 32.4191 73.1807L32.1744 74.1152L34.7554 73.826L34.3104 72.9805C33.9544 72.313 33.5539 71.4675 33.0867 70.4662H33.0644Z" fill="#795D48"/>
<path d="M43.1661 77.0298L42.1426 67.0395L43.9671 66.8615L44.4343 71.4006H44.4566L47.7719 66.461L50.0414 66.2385L46.3701 71.6231L51.3986 76.2066L49.0624 76.4513L44.5678 72.3573H44.5456L45.0128 76.8741L43.1883 77.0521L43.1661 77.0298Z" fill="#795D48"/>
<path d="M61.3666 72.6911L57.6064 73.0248L56.8499 75.6726L54.8918 75.8506L57.9624 65.482L59.6311 65.3263L64.5039 74.9606L62.5681 75.1386L61.3666 72.6688V72.6911ZM59.0081 67.8183C58.7634 68.8863 58.5186 69.7986 58.3184 70.5328L58.0514 71.4451L60.6324 71.2003L60.2096 70.3326C59.8759 69.6428 59.4754 68.7973 59.0304 67.7961H59.0081V67.8183Z" fill="#795D48"/>
<path d="M69.1763 72.5799L71.2456 72.4019L70.0441 77.6084L68.1528 77.7641L69.1763 72.5799Z" fill="#795D48"/>
<path d="M83.1276 73.5144L82.4379 63.5018L84.2624 63.3683L84.5739 67.9296H84.5961L88.0671 63.1013L90.3367 62.9456L86.4874 68.1966L91.3602 72.9359L89.0016 73.0916L84.6406 68.8418H84.6184L84.9299 73.3586L83.1054 73.4921L83.1276 73.5144Z" fill="#795D48"/>
<path d="M99.9483 72.4243L98.1238 72.5355L97.6343 64.036L94.3858 64.214L94.2968 62.6787L102.596 62.1892L102.685 63.7245L99.4588 63.9247L99.9483 72.4243Z" fill="#795D48"/>
<path d="M116.369 66.5723C116.413 67.3288 116.324 68.0408 116.146 68.6861C115.968 69.3313 115.679 69.9098 115.279 70.3771C114.878 70.8666 114.389 71.2448 113.788 71.5118C113.187 71.8011 112.497 71.9568 111.741 72.0013C110.962 72.0458 110.272 71.9346 109.649 71.7121C109.026 71.4896 108.492 71.1558 108.07 70.7108C107.625 70.2658 107.291 69.7318 107.046 69.1088C106.801 68.4858 106.668 67.7961 106.623 67.0173C106.579 66.2608 106.668 65.5488 106.846 64.9035C107.024 64.2583 107.313 63.702 107.714 63.2125C108.114 62.723 108.604 62.3448 109.204 62.0778C109.805 61.7885 110.495 61.6328 111.251 61.5883C112.03 61.5438 112.72 61.655 113.343 61.8775C113.966 62.1 114.5 62.4338 114.923 62.8788C115.368 63.3238 115.701 63.8578 115.946 64.4808C116.191 65.1038 116.347 65.7935 116.369 66.5723ZM114.455 66.6613C114.433 66.0605 114.322 65.5265 114.166 65.0815C114.01 64.6365 113.766 64.2583 113.499 63.969C113.209 63.6798 112.898 63.4573 112.52 63.3238C112.141 63.1903 111.741 63.1458 111.318 63.168C110.873 63.168 110.495 63.2793 110.139 63.4573C109.783 63.613 109.471 63.8578 109.227 64.1915C108.982 64.503 108.782 64.9035 108.648 65.3708C108.515 65.838 108.47 66.372 108.492 66.9728C108.515 67.5735 108.626 68.1075 108.804 68.5526C108.982 68.9976 109.204 69.3758 109.471 69.6651C109.761 69.9543 110.072 70.1768 110.45 70.3103C110.829 70.4438 111.229 70.5106 111.652 70.4883C112.097 70.4883 112.475 70.3771 112.831 70.1991C113.187 70.0211 113.499 69.7763 113.743 69.4648C113.988 69.1533 114.188 68.7528 114.3 68.2856C114.433 67.8183 114.478 67.2843 114.455 66.6835V66.6613ZM113.209 59.2965L111.874 61.21L110.473 61.2768L111.429 59.3855L113.232 59.2965H113.209Z" fill="#795D48"/>
<path d="M128.785 64.0803C128.807 64.77 128.629 65.3708 128.273 65.8825C127.895 66.3943 127.316 66.7725 126.515 67.0395L129.652 71.0891L127.45 71.1781L124.579 67.3955L123.311 67.44L123.445 71.3338L121.598 71.4006L121.22 61.3658L124.268 61.2545C124.78 61.2545 125.247 61.2545 125.692 61.299C126.137 61.3435 126.493 61.4103 126.827 61.5215C127.427 61.7218 127.895 62.0333 128.228 62.4783C128.562 62.9233 128.74 63.4573 128.762 64.1248L128.785 64.0803ZM124.157 65.8603C124.579 65.8603 124.935 65.8158 125.225 65.7713C125.514 65.7268 125.759 65.66 125.959 65.571C126.315 65.4153 126.582 65.215 126.715 64.9703C126.849 64.7255 126.916 64.4363 126.893 64.1248C126.893 63.8578 126.827 63.613 126.693 63.4128C126.56 63.2125 126.382 63.0568 126.092 62.9455C125.914 62.8788 125.692 62.812 125.425 62.7898C125.158 62.7675 124.824 62.7453 124.446 62.7898L123.133 62.8343L123.244 65.9048L124.157 65.8603Z" fill="#795D48"/>
<path d="M140.021 68.2189L136.238 68.3302L135.326 70.9112L133.368 70.9557L137.084 60.8096L138.753 60.7651L143.002 70.7109L141.067 70.7554L140.021 68.2189ZM137.974 63.2126C137.662 64.2807 137.351 65.1484 137.106 65.8827L136.795 66.7949L139.398 66.7282L139.02 65.8382C138.73 65.1262 138.397 64.2584 138.018 63.2349H137.996L137.974 63.2126Z" fill="#795D48"/>
<path d="M158.066 64.9482L155.485 65.9494L155.529 68.9754L160.224 68.9087V70.4439L153.705 70.5552L153.638 66.6837L152.548 67.1064V65.5267L153.616 65.1039L153.549 60.5204H155.396L155.463 64.3919L158.044 63.3906V64.9704L158.066 64.9482Z" fill="#795D48"/>
<path d="M173.73 70.3325C173.441 70.466 173.174 70.5996 172.951 70.7553C172.729 70.9111 172.528 71.089 172.35 71.2448C172.195 71.4228 172.061 71.6008 171.972 71.7566C171.883 71.9346 171.839 72.0903 171.839 72.2461C171.839 72.4241 171.905 72.5576 172.017 72.6466C172.128 72.7356 172.284 72.7801 172.506 72.7578C172.795 72.7578 173.085 72.6911 173.396 72.5798V73.8036C173.263 73.8481 173.085 73.9148 172.862 73.9371C172.64 73.9593 172.395 74.0038 172.15 74.0038C171.905 74.0038 171.661 74.0038 171.438 73.9371C171.216 73.8703 171.038 73.8036 170.86 73.6923C170.682 73.5811 170.57 73.4253 170.481 73.2473C170.392 73.0693 170.326 72.8691 170.326 72.6243C170.326 72.2016 170.437 71.8233 170.682 71.445C170.904 71.089 171.282 70.7108 171.772 70.3325L170.748 67.796L166.966 67.8628L166.031 70.4438H164.073L167.9 60.3645H169.591L173.73 70.3103V70.3325ZM168.768 62.7898C168.434 63.8578 168.123 64.7255 167.878 65.4375L167.544 66.3275L170.148 66.283L169.792 65.393C169.502 64.681 169.169 63.8133 168.813 62.7675H168.79L168.768 62.7898Z" fill="#795D48"/>
<path d="M183.052 61.8109C182.541 61.8109 182.096 61.8776 181.673 62.0334C181.25 62.1891 180.872 62.4339 180.583 62.7454C180.271 63.0569 180.026 63.4351 179.848 63.9024C179.67 64.3696 179.581 64.8814 179.559 65.4821C179.559 66.0829 179.626 66.5947 179.759 67.0397C179.893 67.4847 180.115 67.8629 180.405 68.1744C180.694 68.4859 181.05 68.7084 181.45 68.8642C181.873 69.0199 182.34 69.1089 182.874 69.1089C183.253 69.1089 183.653 69.1089 184.031 69.0422C184.432 68.9977 184.788 68.9087 185.144 68.7974V70.3772C184.766 70.4662 184.387 70.5329 183.987 70.5997C183.586 70.6442 183.164 70.6664 182.719 70.6664C181.873 70.6664 181.117 70.5107 180.471 70.2659C179.826 70.0212 179.292 69.6652 178.869 69.2202C178.447 68.7752 178.135 68.2412 177.913 67.6182C177.712 66.9951 177.601 66.3054 177.623 65.5711C177.623 64.8146 177.757 64.1026 178.002 63.4351C178.246 62.7676 178.58 62.2114 179.025 61.7441C179.47 61.2769 180.026 60.8986 180.694 60.6316C181.361 60.3646 182.096 60.2311 182.941 60.2534C183.364 60.2534 183.764 60.2979 184.143 60.3646C184.521 60.4314 184.855 60.5204 185.166 60.6316V62.1891C184.743 62.0556 184.365 61.9666 184.031 61.8999C183.698 61.8331 183.342 61.8109 183.03 61.8109H183.052Z" fill="#795D48"/>
<path d="M197.537 60.6536V61.6549L191.997 69.0641L197.448 69.1754V70.7107L189.527 70.5549V69.5759L195.068 62.1666L189.817 62.0776V60.5424L197.537 60.6759V60.6536Z" fill="#795D48"/>
<path d="M206.192 65.1929L208.996 60.9431L211.043 61.0099L207.06 66.9062L206.949 70.9557L205.102 70.9112L205.213 66.8617L201.587 60.7651L203.634 60.8319L206.17 65.2374H206.192V65.1929Z" fill="#795D48"/>
<path d="M224.304 67.6851C224.149 67.6851 223.971 67.6851 223.815 67.6628C223.659 67.6406 223.503 67.6405 223.37 67.6183L223.192 71.5343L221.345 71.4453L221.79 61.4105L224.683 61.544C225.172 61.544 225.595 61.6108 225.951 61.6553C226.307 61.722 226.641 61.7888 226.908 61.9C227.575 62.1448 228.087 62.5008 228.443 62.968C228.799 63.4353 228.955 64.036 228.91 64.748C228.91 65.2375 228.777 65.6603 228.554 66.0385C228.332 66.4168 228.02 66.7283 227.642 66.9953C227.264 67.2623 226.774 67.4403 226.196 67.5516C225.639 67.6628 224.994 67.7073 224.282 67.6851H224.304ZM223.437 66.0608C223.437 66.0608 223.681 66.1053 223.837 66.1053C223.993 66.1053 224.171 66.1275 224.349 66.1498C224.838 66.1498 225.261 66.1498 225.595 66.083C225.929 66.0163 226.218 65.9273 226.418 65.7938C226.641 65.6603 226.774 65.5045 226.885 65.3043C226.997 65.104 227.041 64.8815 227.041 64.6368C227.041 64.3475 226.997 64.0805 226.863 63.858C226.73 63.6355 226.507 63.4575 226.173 63.324C225.995 63.2573 225.795 63.2128 225.528 63.1683C225.261 63.1238 224.95 63.1015 224.571 63.0793L223.526 63.0348L223.392 66.0608H223.437Z" fill="#795D48"/>
<path d="M243.261 67.5068C243.217 68.2633 243.061 68.9753 242.816 69.5983C242.571 70.2213 242.215 70.7554 241.77 71.2004C241.325 71.6454 240.791 71.9569 240.168 72.1794C239.545 72.4019 238.856 72.4909 238.077 72.4464C237.298 72.4019 236.608 72.2461 236.03 71.9569C235.429 71.6676 234.94 71.2894 234.561 70.7998C234.161 70.3103 233.872 69.7541 233.694 69.1088C233.516 68.4636 233.449 67.7516 233.493 66.9951C233.538 66.2386 233.694 65.5266 233.938 64.9036C234.183 64.2806 234.539 63.7466 234.984 63.3016C235.429 62.8566 235.963 62.5451 236.586 62.3226C237.209 62.1001 237.899 62.0111 238.678 62.0556C239.456 62.1001 240.146 62.2558 240.725 62.5451C241.325 62.8343 241.815 63.2126 242.193 63.7021C242.594 64.1916 242.883 64.7478 243.061 65.3931C243.239 66.0383 243.306 66.7503 243.283 67.5068H243.261ZM241.348 67.3956C241.392 66.7948 241.348 66.2608 241.214 65.7936C241.081 65.3263 240.903 64.9258 240.658 64.6143C240.413 64.3028 240.102 64.0581 239.746 63.8801C239.39 63.7021 238.989 63.6131 238.566 63.5908C238.121 63.5686 237.721 63.6131 237.365 63.7466C237.009 63.8801 236.653 64.0803 236.386 64.3696C236.097 64.6588 235.874 65.0371 235.696 65.4821C235.518 65.9271 235.407 66.4611 235.385 67.0618C235.34 67.6626 235.385 68.2188 235.518 68.6638C235.652 69.1311 235.83 69.5316 236.074 69.8431C236.319 70.1546 236.631 70.3993 236.987 70.5773C237.343 70.7553 237.743 70.8444 238.166 70.8666C238.589 70.8889 239.011 70.8444 239.39 70.7109C239.768 70.5774 240.079 70.3771 240.369 70.0878C240.658 69.7986 240.88 69.4426 241.058 68.9753C241.236 68.5303 241.348 67.9963 241.37 67.3956H241.348Z" fill="#795D48"/>
<path d="M247.956 72.8246L248.624 62.812L250.448 62.9233L250.137 67.4845H250.159L254.253 63.168L256.522 63.3238L252.006 68.0185L256.189 73.3808L253.83 73.2251L250.07 68.4413H250.048L249.758 72.9581L247.934 72.8468L247.956 72.8246Z" fill="#795D48"/>
<path d="M269.694 69.3536C269.628 70.1101 269.472 70.7999 269.205 71.4229C268.938 72.0459 268.582 72.5576 268.137 73.0026C267.692 73.4254 267.136 73.7369 266.513 73.9594C265.89 74.1596 265.2 74.2486 264.421 74.1819C263.642 74.1151 262.975 73.9371 262.374 73.6479C261.796 73.3586 261.306 72.9581 260.928 72.4686C260.55 71.9791 260.283 71.4006 260.105 70.7554C259.927 70.1101 259.882 69.3981 259.949 68.6194C260.016 67.8628 260.171 67.1731 260.438 66.5501C260.705 65.9271 261.061 65.4153 261.506 64.9703C261.951 64.5476 262.508 64.2361 263.131 64.0136C263.754 63.8133 264.466 63.7243 265.222 63.7911C266.001 63.8578 266.668 64.0358 267.269 64.3251C267.848 64.6366 268.337 65.0148 268.715 65.5043C269.094 65.9938 269.361 66.5723 269.539 67.2176C269.717 67.8629 269.761 68.5749 269.694 69.3536ZM267.803 69.1979C267.848 68.5971 267.803 68.0631 267.692 67.5736C267.581 67.1063 267.403 66.7058 267.158 66.3943C266.913 66.0606 266.624 65.8158 266.268 65.6378C265.912 65.4598 265.511 65.3486 265.089 65.3263C264.644 65.2818 264.243 65.3263 263.865 65.4598C263.487 65.5933 263.153 65.7936 262.864 66.0606C262.574 66.3276 262.33 66.7058 262.152 67.1508C261.974 67.5958 261.862 68.1298 261.796 68.7306C261.751 69.3314 261.796 69.8654 261.907 70.3549C262.018 70.8444 262.196 71.2226 262.441 71.5341C262.686 71.8456 262.975 72.1126 263.331 72.2906C263.687 72.4686 264.065 72.5799 264.51 72.6021C264.955 72.6244 265.356 72.6021 265.734 72.4686C266.112 72.3351 266.446 72.1349 266.735 71.8679C267.024 71.5786 267.269 71.2226 267.447 70.7776C267.625 70.3326 267.736 69.7986 267.803 69.1979Z" fill="#795D48"/>
<path d="M276.993 64.9258L276.258 73.4031L280.931 73.8036L280.797 75.3388L274.278 74.7826L275.146 64.77L276.97 64.9258H276.993Z" fill="#795D48"/>
<path d="M287.517 74.4267L292.434 74.894L292.278 76.4293L285.536 75.784L286.515 65.7937L292.99 66.4167L292.834 67.952L288.184 67.507L287.939 70.088L291.922 70.4662L291.766 72.0015L287.784 71.6232L287.517 74.449V74.4267Z" fill="#795D48"/>
<path d="M303.047 72.1573C303.648 73.2475 304.137 74.2266 304.493 75.0721H304.538C304.627 73.7816 304.694 72.8248 304.76 72.224L305.25 67.7073L307.074 67.9075L306.006 77.8978L304.093 77.6976L301.334 72.758C300.844 71.8903 300.355 70.9113 299.865 69.7988H299.821C299.754 71.0225 299.687 71.9793 299.598 72.6468L299.109 77.1636L297.284 76.9633L298.352 66.973L300.266 67.1733L303.047 72.1795V72.1573Z" fill="#795D48"/>
<path d="M311.413 78.4984L312.57 68.5304L314.395 68.7529L313.238 78.7209L311.413 78.4984Z" fill="#795D48"/>
<path d="M324.675 77.5415L320.914 77.0743L319.624 79.4995L317.688 79.2548L322.895 69.7762L324.564 69.9765L327.278 80.434L325.342 80.1893L324.675 77.5193V77.5415ZM323.429 72.2683C322.962 73.2695 322.539 74.0928 322.161 74.7603L321.715 75.6058L324.297 75.9173L324.074 74.9828C323.896 74.2485 323.696 73.3363 323.473 72.246H323.451L323.429 72.2683Z" fill="#795D48"/>
<path d="M135.815 91.5593C135.815 92.3158 135.704 93.0278 135.482 93.6731C135.259 94.3183 134.948 94.8523 134.525 95.3196C134.102 95.7868 133.59 96.1428 132.99 96.3876C132.389 96.6323 131.677 96.7658 130.92 96.7658C130.164 96.7658 129.452 96.6323 128.851 96.3876C128.25 96.1428 127.739 95.7646 127.316 95.3196C126.893 94.8523 126.582 94.3183 126.359 93.6731C126.137 93.0278 126.025 92.3381 126.025 91.5593C126.025 90.7806 126.137 90.0908 126.359 89.4455C126.582 88.8003 126.893 88.2663 127.316 87.799C127.739 87.3318 128.25 86.9758 128.851 86.731C129.452 86.4863 130.142 86.3528 130.92 86.3528C131.699 86.3528 132.389 86.4863 132.99 86.731C133.59 86.998 134.102 87.354 134.525 87.799C134.948 88.2663 135.259 88.8003 135.482 89.4455C135.704 90.0908 135.815 90.7806 135.815 91.5593ZM133.924 91.5593C133.924 90.9586 133.857 90.4246 133.702 89.9573C133.546 89.49 133.346 89.1118 133.079 88.8225C132.812 88.511 132.5 88.2885 132.122 88.1328C131.744 87.977 131.365 87.9103 130.92 87.9103C130.475 87.9103 130.075 87.977 129.719 88.1328C129.363 88.2885 129.029 88.511 128.762 88.8225C128.495 89.134 128.295 89.5123 128.139 89.9573C127.983 90.4246 127.917 90.9586 127.917 91.5593C127.917 92.1601 127.983 92.6941 128.139 93.1613C128.295 93.6286 128.495 94.0068 128.762 94.2961C129.029 94.6076 129.341 94.8301 129.719 94.9858C130.075 95.1416 130.475 95.2083 130.92 95.2083C131.365 95.2083 131.766 95.1416 132.122 94.9858C132.478 94.8301 132.812 94.6076 133.079 94.2961C133.346 93.9846 133.546 93.6063 133.702 93.1613C133.857 92.7163 133.924 92.1601 133.924 91.5593Z" fill="#795D48"/>
<path d="M140.844 96.5654V86.5306H143.492C143.737 86.5306 143.959 86.5306 144.204 86.5306C144.449 86.5306 144.694 86.5751 144.916 86.5974C145.139 86.6196 145.361 86.6641 145.584 86.7086C145.806 86.7531 146.006 86.7976 146.184 86.8644C146.718 87.0424 147.186 87.2649 147.608 87.5541C148.031 87.8434 148.365 88.1771 148.632 88.5776C148.899 88.9781 149.121 89.4232 149.255 89.9127C149.388 90.4022 149.477 90.9362 149.477 91.4924C149.477 92.0264 149.411 92.5382 149.299 93.0054C149.188 93.4727 148.988 93.9177 148.743 94.2959C148.498 94.6742 148.187 95.0302 147.809 95.3194C147.43 95.6087 146.985 95.8534 146.474 96.0537C146.051 96.2094 145.561 96.3429 145.027 96.4097C144.493 96.4987 143.87 96.5209 143.203 96.5209H140.822L140.844 96.5654ZM143.448 95.0302C144.516 95.0302 145.361 94.8744 145.962 94.5852C146.496 94.3182 146.896 93.9399 147.186 93.4282C147.453 92.9164 147.608 92.2712 147.608 91.4924C147.608 91.0919 147.564 90.7137 147.475 90.3799C147.386 90.0462 147.252 89.7569 147.074 89.4899C146.896 89.2229 146.696 89.0226 146.451 88.8224C146.207 88.6221 145.94 88.4886 145.628 88.3551C145.339 88.2439 145.027 88.1549 144.671 88.1104C144.315 88.0659 143.937 88.0436 143.492 88.0436H142.691V95.0079H143.448V95.0302Z" fill="#795D48"/>
<path d="M162.761 95.0524V91.1808L160.224 91.8928V90.3131L163.161 89.2673H164.518V95.0301H166.632V96.5431H160.358V95.0301H162.738L162.761 95.0524Z" fill="#795D48"/>
<path d="M173.24 98.1453C174.041 98.1453 174.708 97.9005 175.176 97.4333C175.643 96.966 175.954 96.1873 176.088 95.1415H176.066C175.821 95.275 175.509 95.364 175.176 95.4308C174.842 95.4975 174.486 95.542 174.13 95.542C173.685 95.542 173.262 95.4753 172.884 95.3418C172.506 95.2083 172.15 95.008 171.883 94.7633C171.593 94.4963 171.371 94.1848 171.215 93.8065C171.059 93.4283 170.97 92.9832 170.97 92.4715C170.97 92.0042 171.037 91.5592 171.193 91.1365C171.349 90.736 171.571 90.38 171.86 90.0685C172.15 89.7792 172.506 89.5345 172.928 89.3565C173.351 89.1785 173.818 89.0895 174.375 89.0895C174.975 89.0895 175.487 89.2007 175.932 89.401C176.377 89.6235 176.778 89.9127 177.067 90.3355C177.378 90.736 177.623 91.2477 177.779 91.8262C177.935 92.4047 178.024 93.0945 178.024 93.8733C178.024 94.385 177.979 94.8745 177.912 95.364C177.846 95.8535 177.734 96.2985 177.556 96.7435C177.378 97.1885 177.2 97.5668 176.956 97.9228C176.711 98.2788 176.422 98.5903 176.066 98.835C175.732 99.102 175.331 99.3023 174.886 99.4358C174.441 99.5693 173.93 99.6583 173.396 99.6583C172.973 99.6583 172.572 99.6138 172.172 99.547C171.794 99.458 171.46 99.3468 171.171 99.2133V97.6558C171.504 97.8115 171.838 97.945 172.216 98.0118C172.595 98.1008 172.928 98.1453 173.262 98.1453H173.24ZM174.352 94.0068C174.642 94.0068 174.953 93.9845 175.265 93.9178C175.576 93.851 175.865 93.7398 176.132 93.6063C176.132 93.05 176.066 92.605 175.977 92.2267C175.888 91.8485 175.754 91.537 175.598 91.3145C175.443 91.092 175.242 90.914 175.02 90.8027C174.797 90.6915 174.553 90.647 174.286 90.647C174.063 90.647 173.863 90.6915 173.685 90.7582C173.507 90.825 173.329 90.9362 173.195 91.0697C173.062 91.2032 172.951 91.3812 172.884 91.6037C172.817 91.8262 172.773 92.071 172.773 92.3602C172.773 92.6717 172.817 92.9165 172.884 93.139C172.951 93.3392 173.062 93.5173 173.218 93.6508C173.373 93.7843 173.529 93.8733 173.707 93.94C173.907 94.0068 174.108 94.029 174.352 94.029V94.0068Z" fill="#795D48"/>
<path d="M188.215 91.5148C188.215 91.8708 188.148 92.2045 187.992 92.5161C187.836 92.8276 187.636 93.1168 187.391 93.4061C187.124 93.6953 186.835 93.9623 186.479 94.2516C186.123 94.5186 185.745 94.8078 185.322 95.0971C186.012 95.0971 186.524 95.0748 186.857 95.0748H188.815V96.5878H182.452V95.4976C182.986 95.1416 183.475 94.7856 183.943 94.4296C184.41 94.0736 184.833 93.7398 185.189 93.4283C185.545 93.1168 185.834 92.8053 186.034 92.4938C186.257 92.2046 186.346 91.893 186.346 91.6038C186.346 91.4258 186.301 91.2923 186.257 91.1588C186.212 91.0253 186.101 90.9363 185.99 90.8695C185.878 90.8028 185.745 90.736 185.567 90.6915C185.411 90.647 185.233 90.647 185.055 90.647C184.699 90.647 184.299 90.7138 183.854 90.825C183.409 90.9363 182.964 91.1143 182.496 91.3368V89.8238C182.652 89.7348 182.83 89.6458 183.053 89.579C183.253 89.49 183.475 89.4233 183.698 89.3565C183.943 89.2898 184.187 89.223 184.454 89.2008C184.721 89.1563 185.011 89.134 185.278 89.134C185.7 89.134 186.101 89.1785 186.457 89.2898C186.813 89.401 187.124 89.5568 187.369 89.757C187.636 89.9573 187.814 90.202 187.97 90.5135C188.103 90.8028 188.192 91.1588 188.192 91.537L188.215 91.5148Z" fill="#795D48"/>
<path d="M195.735 95.0524V91.1808L193.198 91.8928V90.3131L196.135 89.2673H197.493V95.0301H199.606V96.5431H193.332V95.0301H195.713L195.735 95.0524Z" fill="#795D48"/>
<path d="M214.759 90.7138H214.603C214.047 90.7138 213.579 90.8028 213.157 90.9585C212.734 91.1143 212.422 91.359 212.2 91.715V96.5878H210.42V89.312H211.888L212.044 90.3355H212.066C212.267 89.9573 212.556 89.668 212.934 89.4678C213.312 89.2675 213.735 89.1563 214.247 89.1563C214.425 89.1563 214.581 89.1562 214.714 89.1785V90.736L214.759 90.7138Z" fill="#795D48"/>
<path d="M218.319 94.5629H220.344V96.5654H218.319V94.5629Z" fill="#795D48"/>
<path d="M67.6857 30.2603V29.2368L79.7008 2.84817L73.849 3.11517L69.488 8.6777H68.6425L68.1085 0.712158H86.932V1.73566L74.9615 27.9018L81.3473 27.39L86.0643 21.605H86.9098L86.7095 30.2603H67.6635H67.6857Z" fill="#E44242"/>
<path d="M88.0003 30.2603V29.2368L89.7358 26.4555L96.9448 4.73943L94.9868 1.73566V0.712158H102.263L110.829 26.5445L112.542 29.2368V30.2603H102.107V29.2368L104.354 26.5L102.797 21.8275H94.9868L94.0746 26.5L96.3441 29.2368V30.2603H87.978H88.0003ZM95.4763 19.2687H101.973L97.9016 6.96444L95.4986 19.2687H95.4763Z" fill="#E44242"/>
<path d="M113.454 30.2603V29.2368L115.635 26.2775V4.69493L113.454 1.73566V0.712158H124.446C127.071 0.712158 129.319 1.29066 131.21 2.46992C133.101 3.64917 134.57 5.29568 135.615 7.45394C136.639 9.6122 137.173 12.171 137.173 15.1525C137.173 17.3775 136.861 19.4245 136.216 21.249C135.571 23.0958 134.659 24.6755 133.479 26.0328C132.3 27.3678 130.898 28.4135 129.274 29.17C127.65 29.9043 125.87 30.2825 123.934 30.2825H113.499L113.454 30.2603ZM123.756 3.27092H121.82V27.7015H123.756C125.113 27.7015 126.27 27.212 127.272 26.2108C128.273 25.2095 129.029 23.8078 129.563 21.961C130.097 20.1365 130.364 17.9782 130.364 15.4862C130.364 12.9942 130.097 10.8137 129.563 8.9892C129.029 7.18694 128.251 5.76293 127.272 4.76168C126.27 3.76042 125.113 3.27092 123.756 3.27092Z" fill="#E44242"/>
<path d="M137.084 30.2603V29.2368L139.264 26.2775V4.69493L137.084 1.73566V0.712158H147.652V1.73566L145.472 4.69493V14.6407L152.503 4.18317L150.879 1.73566V0.712158H161.514V1.73566L157.776 4.73943L151.991 10.9027L159.757 26.233L162.093 29.2368V30.2603H151.479V29.2368L152.77 26.6558L147.296 15.909L145.45 17.8892V26.2775L147.63 29.2368V30.2603H137.061H137.084Z" fill="#E44242"/>
<path d="M173.107 30.9499C170.637 30.9499 168.501 30.3269 166.676 29.0809C164.852 27.8349 163.45 26.0771 162.471 23.7854C161.47 21.4936 160.98 18.8013 160.98 15.6863C160.98 12.5713 161.492 9.67879 162.493 7.34253C163.517 5.00627 164.941 3.20402 166.787 1.91351C168.634 0.645253 170.837 0 173.374 0C175.91 0 178.002 0.623003 179.804 1.86901C181.606 3.11501 183.008 4.87277 183.987 7.14228C184.988 9.41179 185.478 12.1263 185.478 15.2636C185.478 18.4008 184.966 21.2488 183.965 23.6074C182.941 25.9659 181.517 27.7681 179.67 29.0586C177.824 30.3269 175.621 30.9721 173.062 30.9721L173.107 30.9499ZM173.485 27.8349C175.176 27.8349 176.466 26.8114 177.356 24.7866C178.246 22.7619 178.691 19.8916 178.691 16.1758C178.691 13.4836 178.469 11.1696 178.002 9.23379C177.534 7.29803 176.889 5.78503 176.044 4.73927C175.198 3.69352 174.197 3.15951 172.995 3.15951C171.327 3.15951 170.036 4.16077 169.124 6.18553C168.211 8.21029 167.766 11.0806 167.766 14.8186C167.766 17.4663 167.989 19.7803 168.456 21.7384C168.923 23.6964 169.569 25.2094 170.437 26.2551C171.282 27.3009 172.306 27.8349 173.463 27.8349H173.485Z" fill="#E44242"/>
<path d="M193.889 30.2603L185.879 4.47243L184.232 1.73566V0.712158H194.556V1.73566L192.242 4.31667L197.805 22.3615L201.12 4.49468L198.672 1.75791V0.734408H209.085V1.75791L206.816 4.33893L212.378 22.3838L215.605 4.33893L213.291 1.75791V0.734408H221.456V1.75791L219.832 4.36118L211.8 30.2825H208.44L202.833 12.171L197.204 30.2825H193.844L193.889 30.2603Z" fill="#E44242"/>
<path d="M229.8 30.9499C226.796 30.9499 223.971 29.9041 221.278 27.7904L223.526 21.2711H224.371L228.332 27.4789C228.932 27.6791 229.578 27.7681 230.267 27.7681C231.447 27.7681 232.359 27.4344 232.982 26.7446C233.605 26.0549 233.916 25.0759 233.916 23.7854C233.916 22.6951 233.516 21.7829 232.737 21.0263C231.936 20.2698 230.557 19.4466 228.554 18.5566C226.885 17.8223 225.573 17.0436 224.594 16.2203C223.615 15.3971 222.925 14.4403 222.524 13.3501C222.124 12.2598 221.901 10.9248 221.901 9.38954C221.901 6.49703 222.68 4.22752 224.238 2.53651C225.795 0.845504 227.909 0 230.579 0C231.914 0 233.293 0.289251 234.717 0.845504C236.141 1.40176 237.499 2.18051 238.789 3.18176L236.319 9.34504H235.474L231.402 3.13726C231.091 3.07051 230.779 3.04826 230.445 3.04826C229.511 3.04826 228.754 3.33752 228.176 3.93827C227.575 4.53902 227.286 5.31777 227.286 6.25228C227.286 7.32028 227.686 8.23254 228.465 8.98904C229.266 9.7678 230.646 10.5911 232.648 11.4811C234.317 12.1931 235.63 12.9718 236.609 13.7951C237.588 14.6183 238.277 15.5751 238.678 16.6653C239.078 17.7556 239.301 19.0906 239.301 20.6481C239.301 22.7396 238.923 24.5419 238.144 26.0994C237.365 27.6569 236.275 28.8361 234.873 29.6816C233.449 30.5271 231.78 30.9499 229.845 30.9499H229.8Z" fill="#E44242"/>
<path d="M240.636 30.2603V29.2368L242.816 26.2775V4.69493L240.636 1.73566V0.712158H251.205V1.73566L249.024 4.69493V14.6407L256.055 4.18317L254.431 1.73566V0.712158H265.066V1.73566L261.328 4.73943L255.543 10.9027L263.309 26.233L265.645 29.2368V30.2603H255.032V29.2368L256.322 26.6558L250.849 15.909L249.002 17.8892V26.2775L251.182 29.2368V30.2603H240.614H240.636Z" fill="#E44242"/>
<path d="M265.133 30.2603V29.2368L266.869 26.4555L274.078 4.73943L272.12 1.73566V0.712158H279.395L287.962 26.5445L288.874 29.2368V30.2603H279.217V29.2368L281.465 26.5L279.907 21.8275H272.097L271.185 26.5L273.455 29.2368V30.2603H265.089H265.133ZM272.609 19.2687H279.106L275.034 6.96444L272.631 19.2687H272.609Z" fill="#E44242"/>
<path d="M65.661 16.6875C65.2605 15.5973 64.5485 14.6405 63.5918 13.8173C62.6128 12.994 61.3 12.2153 59.6312 11.5033C57.6287 10.6133 56.227 9.79001 55.4482 9.01126C54.6695 8.2325 54.269 7.32025 54.269 6.2745C54.269 5.33999 54.5582 4.56124 55.159 3.96049C55.7597 3.35973 56.5162 3.07048 57.4285 3.07048C57.74 3.07048 58.0515 3.09273 58.3852 3.15948L62.4793 9.36726H63.3248L65.7945 3.20398C64.504 2.20273 63.1468 1.42397 61.7228 0.867721C60.2987 0.311468 58.9192 0.0222168 57.5842 0.0222168C54.9142 0.0222168 52.8005 0.867721 51.243 2.55873C49.6854 4.24974 48.9067 6.51925 48.9067 9.41176C48.9067 10.947 49.1069 12.282 49.5297 13.3723C49.9302 14.4625 50.6422 15.4193 51.599 16.2425C52.5557 17.0658 53.8907 17.8446 55.5595 18.5788C57.562 19.4688 58.9637 20.2921 59.7425 21.0486C60.5435 21.8051 60.9218 22.7173 60.9218 23.8076C60.9218 25.0981 60.6102 26.0771 59.9872 26.7668C59.3642 27.4566 58.452 27.7903 57.2727 27.7903C56.6052 27.7903 55.96 27.7013 55.337 27.5011L51.3765 21.2933H50.7535L48.7732 22.6728V28.1908C51.3097 30.0599 53.9797 30.9944 56.7832 30.9944C58.719 30.9944 60.41 30.5716 61.8118 29.7261C63.2358 28.8806 64.326 27.7013 65.0825 26.1438C65.8613 24.6086 66.2395 22.7841 66.2395 20.6926C66.2395 19.1128 66.0393 17.8001 65.6165 16.7098L65.661 16.6875Z" fill="#E44242"/>
<path d="M286.938 3.64904H287.272C287.739 3.64904 288.051 3.64904 288.162 3.60454C288.273 3.56004 288.362 3.49329 288.429 3.40429C288.496 3.31529 288.54 3.20404 288.54 3.09279C288.54 2.98154 288.518 2.87029 288.451 2.78129C288.384 2.69228 288.295 2.62553 288.162 2.58103C288.051 2.53653 287.739 2.51428 287.272 2.51428H286.938V3.62679V3.64904ZM286.115 5.9408V1.89128H286.938C287.717 1.89128 288.14 1.89128 288.229 1.89128C288.496 1.89128 288.718 1.95803 288.874 2.04703C289.03 2.13603 289.163 2.26953 289.252 2.42528C289.363 2.60328 289.408 2.80354 289.408 3.00379C289.408 3.29304 289.319 3.53779 289.119 3.76029C288.918 3.96054 288.651 4.09404 288.318 4.13854C288.451 4.18304 288.54 4.22754 288.607 4.29429C288.674 4.33879 288.763 4.45004 288.874 4.60579C288.896 4.65029 289.007 4.80604 289.185 5.0953L289.675 5.91855H288.651L288.318 5.25105C288.095 4.80604 287.895 4.51679 287.739 4.40554C287.583 4.29429 287.405 4.22754 287.161 4.22754H286.938V5.8963H286.115V5.9408ZM287.85 0.823276C287.316 0.823276 286.827 0.956777 286.337 1.22378C285.848 1.49078 285.47 1.86903 285.203 2.35853C284.913 2.84804 284.78 3.35979 284.78 3.91604C284.78 4.47229 284.913 4.9618 285.18 5.4513C285.447 5.9408 285.826 6.31905 286.315 6.58605C286.805 6.85305 287.316 6.98656 287.85 6.98656C288.384 6.98656 288.896 6.85305 289.386 6.58605C289.875 6.31905 290.253 5.9408 290.52 5.4513C290.787 4.9618 290.921 4.45004 290.921 3.91604C290.921 3.38204 290.787 2.87029 290.498 2.35853C290.231 1.86903 289.831 1.49078 289.341 1.22378C288.852 0.956777 288.34 0.823276 287.828 0.823276H287.85ZM287.828 0.0667725C288.496 0.0667725 289.119 0.222523 289.719 0.556275C290.32 0.890026 290.81 1.35728 291.143 1.95803C291.499 2.58103 291.655 3.20404 291.655 3.89379C291.655 4.58354 291.477 5.20655 291.143 5.8073C290.81 6.40805 290.342 6.8753 289.719 7.23131C289.119 7.56506 288.473 7.74306 287.806 7.74306C287.138 7.74306 286.493 7.56506 285.892 7.23131C285.292 6.89755 284.824 6.4303 284.468 5.8073C284.135 5.20655 283.957 4.56129 283.957 3.89379C283.957 3.22629 284.135 2.58103 284.468 1.95803C284.824 1.33503 285.292 0.867776 285.892 0.556275C286.493 0.222523 287.116 0.0667725 287.784 0.0667725H287.828Z" fill="#E44242"/>
<path d="M329.72 133.786C285.422 125.884 229.391 119.658 170.966 119.658C112.301 119.658 55.7914 125.884 11.2541 133.786C10.5357 133.786 5.50731 134.983 0 136.42L8.14124 138.335C11.0146 137.856 13.1697 137.617 13.6485 137.617C56.7492 130.194 113.977 128.039 170.727 128.039C226.997 128.039 283.746 130.194 326.847 137.617C327.565 137.617 329.481 138.096 331.636 138.335L340.495 135.941C336.904 134.983 330.678 134.025 329.481 133.786H329.72Z" fill="#785D47"/>
</svg>
