<svg width="34" height="48" viewBox="0 0 34 48" fill="none" xmlns="http://www.w3.org/2000/svg">
<path d="M12.3248 7.97444C15.588 8.22364 20.3574 7.72524 22.6165 7.22684V6.97764C20.6084 6.72844 15.337 6.97764 12.3248 6.97764C9.31253 6.72844 4.7942 6.47923 3.79012 6.23003V6.72843C4.29216 6.72843 10.5676 7.72524 12.3248 7.97444Z" fill="#795D48"/>
<path d="M31.6532 40.6198L30.3981 40.1214C29.6451 39.8722 29.143 40.1214 28.641 40.6198L25.6288 44.8562C25.6288 45.1054 25.3777 45.1054 25.1267 45.1054C25.1267 45.1054 5.29624 44.8562 2.53503 44.3578C2.28401 44.3578 2.03299 44.3578 1.78197 43.8594C0.0248418 34.3898 1.27994 9.96805 1.78197 5.98083C1.78197 5.73163 2.03299 5.23323 2.28401 4.23642C2.53503 3.73802 3.79012 2.99041 5.04522 2.24281C6.30031 1.49521 7.80642 0.996804 9.31254 0.996804L29.6451 1.49521C29.6451 1.49521 26.6328 2.99042 25.3777 4.48562C24.6247 5.48243 24.1226 6.47923 24.1226 7.97444C24.1226 8.72204 23.6206 41.8658 24.8757 42.8626C24.1226 19.9361 25.1267 8.72204 25.1267 7.97444C25.1267 7.22684 25.1267 6.72844 25.6288 5.73163C26.1308 4.98403 29.394 3.98722 29.394 3.98722C29.394 3.98722 30.1471 3.73802 29.8961 3.23962L26.6328 3.73802C27.6369 3.23962 30.6491 2.24281 30.6491 2.24281C32.4063 19.9361 32.4063 38.6262 31.6532 40.6198ZM32.6573 1.99361C32.6573 1.74441 32.6573 1.74441 32.6573 1.99361C32.6573 1.74441 32.6573 1.74441 32.6573 1.74441C32.6573 1.74441 32.6573 1.74441 32.4063 1.74441L30.1471 0.498402C29.143 -5.06639e-07 28.1389 0 27.1349 0H9.31254C8.05744 0 6.55133 0.2492 5.54725 0.996804C4.04114 1.74441 2.03299 2.99042 1.78197 3.73802C1.02892 4.98403 1.02892 5.73163 0.777899 6.23003C0.52688 8.72204 -0.979234 42.115 1.02892 45.3546C1.02892 45.6038 1.02892 46.1022 2.78605 46.3514C4.29216 46.6006 25.6288 47.099 25.6288 47.099C25.8798 47.099 25.8798 47.099 25.8798 47.099L32.4063 42.3642C33.9124 39.8722 33.6614 19.6869 32.6573 1.99361Z" fill="#795D48"/>
</svg>
