<svg width="77" height="60" viewBox="0 0 77 60" fill="none" xmlns="http://www.w3.org/2000/svg">
<path d="M76.2105 1.74441C76.2105 1.49521 76.2105 1.49521 76.2105 1.49521L74.4534 0.747603C73.7003 0.498402 72.6963 0.249201 71.6922 0.249201H56.38C55.627 0.249201 54.6229 0.498402 53.8699 0.747603L53.3678 0.498402C52.6148 0.249201 51.6107 0 50.6066 0H35.2945C34.0394 0 33.0353 0.249201 32.0312 0.747603C30.7761 1.49521 29.019 2.49201 28.768 2.99042C28.517 3.23962 28.517 3.73802 28.2659 3.98722C27.2619 3.98722 26.0068 4.23642 25.2537 4.73482C23.9986 5.48243 22.2415 6.47923 21.9905 6.97764C21.4884 7.72524 21.4884 8.22364 21.2374 8.47284C20.2333 8.47284 19.4803 8.72204 18.4762 9.22045C17.2211 9.96805 15.464 10.9649 15.213 11.4633C14.7109 11.9617 14.7109 12.4601 14.4599 12.9585C13.4558 12.9585 12.4518 13.2077 11.4477 13.7061C10.1926 14.4537 8.43546 15.4505 8.18444 15.9489C7.68241 16.6965 7.43139 17.1949 7.43139 17.6933C6.42731 17.6933 5.67426 17.9425 4.9212 18.4409C3.66611 19.1885 1.90898 20.1853 1.65796 20.6837C1.15592 21.6805 0.904906 22.1789 0.904906 22.6773C0.402868 25.1693 -0.852226 53.8275 0.904906 56.5687C0.904906 56.8179 0.904902 57.3163 2.41101 57.3163C3.66611 57.5655 21.9905 58.0639 21.9905 58.0639H22.2415H22.4925C22.7435 58.0639 22.9946 58.3131 23.4966 58.3131C24.7517 58.5623 43.0761 59.0607 43.0761 59.0607H43.3271L48.8495 55.0735C48.8495 54.8243 49.1005 54.8243 49.1005 54.3259C49.3515 54.3259 49.3515 54.3259 49.3515 54.3259H49.6025L55.125 50.3387C55.125 50.3387 55.125 50.0895 55.376 50.0895C55.878 50.0895 56.129 50.0895 56.129 50.0895H56.38L61.9025 46.1022C61.9025 46.1022 62.1535 45.853 62.1535 45.6038C62.4045 45.6038 62.6555 45.6038 62.6555 45.6038H62.9065L68.4289 41.6166C68.4289 41.6166 68.429 41.3674 68.68 41.3674C69.182 41.3674 69.433 41.3674 69.433 41.3674H69.684L75.2065 37.3802C77.4656 34.1406 77.2146 16.9457 76.2105 1.74441ZM55.125 1.49521C55.627 1.49521 56.129 1.24601 56.6311 1.24601L73.9514 1.74441C73.9514 1.74441 71.1902 2.99042 70.1861 4.23642C69.9351 4.73482 69.433 5.48243 69.433 6.72843V6.47923C69.433 6.47923 69.433 6.47923 69.433 6.23003L67.6759 5.48243C66.9228 5.23323 65.9188 4.98403 64.9147 4.98403H55.627H54.3719H50.3556V4.73482C50.3556 4.48562 50.3556 4.48562 50.6066 4.48562C50.6066 4.23642 51.1087 3.98722 51.6107 3.48882C51.8617 3.23962 52.1127 3.23962 52.3638 2.99042C52.6148 2.74121 52.8658 2.74121 53.1168 2.49201C53.6188 1.74441 54.3719 1.49521 55.125 1.49521ZM62.6555 10.7157C62.4045 10.7157 62.4045 10.7157 62.6555 10.7157C62.4045 10.4665 62.4045 10.4665 62.6555 10.7157L60.8984 9.71885C59.8943 9.46965 58.8902 9.22045 57.8862 9.22045H55.627H54.3719H49.6025H48.8495H48.3474H48.0964H47.0924H43.0761C43.0761 8.97125 43.3271 8.72204 43.3271 8.47284C43.3271 8.47284 43.5781 8.22364 43.5781 7.97444C44.0801 7.72524 44.5822 7.22684 45.3352 6.72843C45.3352 6.72843 45.5862 6.72844 45.5862 6.47923C45.8373 6.23003 46.3393 6.23003 46.5903 5.98083C47.0924 5.73163 48.0964 5.48243 48.0964 5.48243C48.3475 5.48243 48.5985 5.48243 48.5985 5.48243C48.8495 5.48243 48.8495 5.48243 49.1005 5.48243H49.3515H50.8576H53.6188H54.8739H56.6311C57.1331 5.48243 57.6351 5.48243 57.8862 5.48243C58.8902 5.48243 59.8943 5.48243 60.8984 5.48243H66.1698C66.1698 5.48243 65.9188 5.48243 65.6677 5.73163C64.9147 6.23003 63.4086 6.97764 62.6555 7.97444C63.1576 9.22045 62.6555 9.96805 62.6555 10.7157ZM55.878 15.9489C55.878 15.6997 55.878 15.6997 55.878 15.9489C55.878 15.6997 55.878 15.6997 55.878 15.6997C55.878 15.6997 55.878 15.6997 55.878 15.4505L55.125 15.2013L54.3719 14.9521C53.6188 14.7029 52.6148 14.4537 51.6107 14.4537H50.1046H49.3515H49.1005H48.8495H48.0964H43.3271H42.574H41.821H41.5699H41.3189H40.5659H36.8006C36.8006 14.2045 37.0516 13.9553 37.0516 13.7061C37.0516 13.7061 37.3026 13.4569 37.3026 13.2077C37.8047 12.9585 38.3067 12.4601 39.0598 11.9617C39.0598 11.9617 39.3108 11.9617 39.3108 11.7125C39.5618 11.4633 40.0638 11.4633 40.3149 11.2141C40.5659 11.2141 40.8169 10.9649 41.3189 10.9649H41.5699C41.5699 10.9649 41.5699 10.9649 41.821 10.9649C42.072 10.9649 42.072 10.9649 42.323 10.9649C42.574 10.9649 42.825 10.9649 43.0761 10.9649H44.8332H47.3434H48.0964H48.3474H48.8495H49.6025H54.3719H55.627H60.3964C60.3964 10.9649 60.1453 10.9649 59.8943 11.2141C59.1413 11.7125 57.3841 12.4601 56.6311 13.4569C56.3801 13.9553 55.878 14.7029 55.878 15.9489ZM49.1005 19.9361L48.8495 19.6869L48.3474 19.4377L47.8454 19.1885H47.0924C46.3393 18.9393 45.3352 18.6901 44.3312 18.6901H42.574H42.072H41.821H41.3189H41.0679H40.8169H36.0475H35.2945H34.7924H34.5414H33.5373H29.521C29.521 18.4409 29.7721 18.1917 29.7721 17.6933C29.7721 17.6933 30.0231 17.4441 30.0231 17.1949C30.5251 16.9457 31.0272 16.4473 31.7802 15.9489C31.7802 15.9489 32.0312 15.9489 32.0312 15.6997C32.2822 15.4505 32.7843 15.4505 33.0353 15.2013C33.5373 14.9521 33.7884 14.9521 34.2904 14.9521C34.5414 14.9521 34.5414 14.9521 34.7924 14.9521C35.0435 14.9521 35.0435 14.9521 35.2945 14.9521C35.5455 14.9521 35.5455 14.9521 35.7965 14.9521H36.0475H40.3149H40.8169H41.0679H41.3189H41.5699H42.323H47.0924H47.5944H47.8454H48.3474H49.1005H53.1168C53.1168 14.9521 50.3556 16.1981 49.3515 17.4441C49.1005 17.6933 48.8495 18.1917 48.8495 18.4409C49.1005 19.1885 49.1005 19.6869 49.1005 19.9361ZM29.521 3.73802C29.7721 3.23962 30.7761 2.49201 32.0312 1.99361C33.2863 1.24601 34.5414 0.996804 35.7965 0.996804L52.3638 1.24601C51.3597 1.99361 50.1046 2.74121 49.8536 3.23962C49.3515 3.48882 49.1005 3.98722 49.1005 4.23642C49.1005 4.23642 48.8495 4.48562 48.8495 4.73482C48.3474 4.73482 47.8454 4.73482 47.3434 4.98403L46.3393 4.23642C45.5862 3.98722 44.5822 3.73802 43.5781 3.73802H29.521C29.27 3.73802 29.27 3.73802 29.521 3.73802ZM22.4925 7.72524C22.7435 7.22684 23.7476 6.47923 25.0027 5.98083C25.7558 5.48243 26.7598 5.23323 27.7639 5.23323C28.0149 5.23323 28.2659 5.23323 28.768 5.23323H29.019H30.2741L36.2985 5.48243C36.8006 5.48243 37.3026 5.48243 37.5536 5.48243C38.5577 5.48243 39.5618 5.48243 40.5659 5.48243H45.8373C45.8373 5.48243 45.5862 5.48243 45.3352 5.73163C44.5822 6.23003 43.0761 6.97764 42.323 7.97444C42.072 8.47284 41.821 8.97125 41.5699 9.46965C41.3189 9.46965 41.0679 9.46965 40.8169 9.71885L39.5618 9.22045C38.8087 8.97125 37.8047 8.72205 36.8006 8.72205H28.517H27.2619H21.9905C22.2415 8.22364 22.4925 7.97444 22.4925 7.72524ZM15.966 12.4601C16.2171 11.9617 17.2211 11.2141 18.4762 10.7157C19.2293 10.2173 19.9823 9.96805 20.9864 9.96805C21.4884 9.96805 21.7395 9.71885 22.2415 9.71885H23.9986H27.7639H29.019L39.3108 9.96805C39.3108 9.96805 39.0598 9.96805 38.8087 10.2173C38.0557 10.7157 36.2985 11.4633 35.5455 12.4601C35.2945 12.9585 35.0435 13.2077 34.7924 13.7061C34.2904 13.7061 34.0394 13.7061 33.5373 13.9553L32.2823 13.4569C31.5292 13.2077 30.5251 12.9585 29.521 12.9585H28.0149H27.0109H21.7395H20.4844H15.464C15.715 12.7093 15.715 12.7093 15.966 12.4601ZM8.93751 16.9457C9.18853 16.4473 10.1926 15.6997 11.4477 15.2013C12.2008 14.7029 13.2048 14.4537 14.2089 14.4537C14.4599 14.4537 14.962 14.2045 15.213 14.2045H15.464H20.7354H21.9905H27.5129H28.517H32.5333C32.5333 14.2045 29.7721 15.4505 28.768 16.6965C28.517 16.9457 28.2659 17.4441 28.2659 17.6933C28.2659 17.9425 28.0149 18.1917 28.0149 18.4409C27.7639 18.4409 27.5129 18.4409 27.2619 18.6901L26.2578 18.1917C25.5047 17.9425 24.5007 17.6933 23.4966 17.6933H21.7395H20.7354H15.464H14.2089H8.93751C8.68649 17.6933 8.93751 17.4441 8.93751 16.9457ZM2.41101 56.0703C2.16 56.0703 1.90898 56.0703 1.90898 55.5719C0.402862 47.5974 1.65796 26.6645 1.90898 23.1757C1.90898 22.9265 2.16 22.4281 2.41101 21.6805C2.66203 21.1821 3.66611 20.4345 4.9212 19.9361C5.67426 19.4377 6.42731 19.1885 7.43139 19.1885C7.93343 19.1885 8.18445 18.9393 8.68648 18.9393H13.9579H15.213H20.4844H21.4884H26.0068C26.0068 18.9393 23.2456 20.1853 22.2415 21.4313C21.7395 21.9297 21.4884 22.6773 21.2374 23.4249C21.2374 23.6741 21.2374 24.1725 21.2374 24.4217C21.2374 24.9201 20.9864 33.6422 21.2374 41.6166C21.2374 41.8658 21.2374 41.8658 21.2374 42.115C21.2374 43.6102 21.2374 45.1054 21.2374 46.3514C21.2374 46.8498 21.2374 47.099 21.2374 47.5974C21.2374 48.8435 21.2374 50.0895 21.2374 51.0863C21.2374 51.5847 21.2374 52.0831 21.2374 52.3323C21.2374 54.0767 21.4884 55.3227 21.7395 56.0703C21.2374 56.5687 4.67018 56.3195 2.41101 56.0703ZM43.3271 57.0671C43.3271 57.3163 43.0761 57.3163 42.825 57.3163C42.825 57.3163 26.5088 57.0671 23.7476 56.5687C23.7476 56.5687 23.7476 56.5687 23.4966 56.5687C23.2456 56.5687 22.9946 56.5687 22.9946 56.0703C22.9946 55.8211 22.9946 55.5719 22.9946 55.3227C22.9946 54.5751 22.7435 53.8275 22.7435 52.8307C22.7435 52.3323 22.7435 52.0831 22.7435 51.5847C22.7435 50.5879 22.4925 49.3419 22.4925 48.0958C22.4925 47.5974 22.4925 47.3482 22.4925 46.8498C22.4925 45.6038 22.4925 44.3578 22.4925 43.1118C22.4925 42.6134 22.4925 42.115 22.4925 41.6166C22.4925 33.6422 22.9946 25.6677 23.2456 23.9233C23.2456 23.6741 23.4966 23.1757 23.7476 22.4281C23.7476 22.4281 23.9986 22.1789 23.9986 21.9297C24.5007 21.6805 25.0027 21.1821 25.7558 20.6837C25.7558 20.6837 26.0068 20.6837 26.0068 20.4345C26.2578 20.1853 26.7598 20.1853 27.0109 19.9361C27.0109 19.9361 27.0109 19.9361 27.2619 19.9361C27.5129 19.9361 27.7639 19.6869 28.0149 19.6869H28.2659C28.517 19.6869 28.517 19.6869 28.768 19.6869C29.019 19.6869 29.27 19.6869 29.521 19.6869H33.7884H34.5414H34.7924H35.0435H35.7965H40.5659H40.8169H41.0679H41.5699H41.821H42.323H46.8413C46.8413 19.6869 44.0801 20.9329 43.0761 22.1789C42.574 22.6773 42.323 23.4249 42.072 24.1725C42.072 24.4217 42.072 24.6709 42.072 24.9201V25.1693C42.072 25.4185 42.072 31.3994 41.821 37.8786C41.821 38.377 41.821 38.6262 41.821 39.1246C41.821 39.3738 41.821 39.3738 41.821 39.623C41.821 40.3706 41.821 41.1182 41.821 42.115C41.821 42.3642 41.821 42.8626 41.821 43.1118C41.821 43.361 41.821 43.361 41.821 43.6102C41.821 44.8562 41.821 46.1022 41.821 47.3482C41.821 47.8466 41.821 48.0959 41.821 48.5943C41.821 49.8403 41.821 51.0863 42.072 52.0831C42.072 52.5815 42.072 53.0799 42.072 53.3291C42.072 54.3259 42.323 55.0735 42.574 55.0735C42.574 54.3259 42.574 53.8275 42.574 53.3291C42.574 52.8307 42.574 52.5815 42.574 52.0831C42.574 50.8371 42.574 49.5911 42.574 48.5943C42.574 48.0959 42.574 47.8466 42.574 47.3482C42.574 46.1022 42.574 44.607 42.574 43.6102V43.361C42.574 42.8626 42.574 42.115 42.574 41.6166C42.574 40.869 42.574 40.1214 42.574 39.623C42.574 39.3738 42.574 39.1246 42.574 38.8754C42.574 38.6262 42.574 38.377 42.574 38.1278C42.574 29.9042 43.0761 25.9169 43.0761 25.4185C43.0761 24.6709 43.0761 24.1725 43.5781 23.4249C43.8291 22.6773 46.8413 21.9297 46.8413 21.9297C46.8413 21.9297 47.3434 21.6805 47.3434 21.4313L44.5822 21.9297C45.3352 21.6805 47.0924 20.9329 47.5944 20.6837C47.8454 20.6837 47.8454 20.6837 47.8454 20.6837C47.8454 21.1821 47.8454 21.9297 47.8454 22.4281V22.6773C48.0964 27.1629 48.3474 31.8978 48.3474 36.1342C48.3474 36.1342 48.3474 36.1342 48.3474 36.3834C48.3474 36.8818 48.3474 37.6294 48.3474 38.1278C48.3474 38.377 48.3474 38.377 48.3474 38.6262V38.8754C48.3474 39.1246 48.3474 39.623 48.3474 39.8722C48.3474 40.869 48.3474 41.8658 48.3474 42.6134V42.8626C48.3474 43.361 48.3474 43.6102 48.3474 44.1086C48.3474 45.3546 48.3474 46.6006 48.3474 47.5974C48.3474 48.0958 48.3474 48.345 48.3474 48.8435C48.3474 50.3387 48.0964 51.5847 48.0964 52.3323C48.0964 52.8307 47.8454 53.0799 47.8454 53.3291L46.8413 52.8307C46.0883 52.5815 45.8373 52.8307 45.3352 53.3291L43.3271 57.0671ZM49.8536 52.3323C49.8536 52.5815 49.6025 52.5815 49.3515 52.5815C49.6025 51.5847 49.6025 50.5879 49.6025 49.0927C49.6025 48.5943 49.6025 48.3451 49.6025 47.8466C49.6025 46.8498 49.6025 45.6038 49.6025 44.3578C49.6025 43.8594 49.6025 43.6102 49.6025 43.1118C49.6025 41.8658 49.6025 40.6198 49.6025 39.3738C49.6025 38.6262 49.6025 38.1278 49.6025 37.3802V37.131C49.6025 33.6422 49.3515 29.9042 49.3515 26.1661C49.6025 22.9265 49.6025 21.1821 49.6025 20.9329C49.6025 20.1853 49.6025 19.6869 50.1046 18.9393C50.3556 18.1917 53.3678 17.4441 53.3678 17.4441C53.3678 17.4441 53.8699 17.1949 53.8699 16.9457L51.1087 17.4441C52.1127 16.9457 54.3719 16.1981 54.3719 16.1981C54.3719 16.4473 54.3719 16.6965 54.3719 16.9457C54.6229 22.9265 54.8739 28.9074 55.125 34.1406C55.125 35.6358 55.125 37.131 55.125 38.6262C55.125 39.1246 55.125 39.3738 55.125 39.8722C55.125 41.1182 55.125 42.3642 55.125 43.361C55.125 43.8594 55.125 44.1086 55.125 44.607C55.125 46.1022 54.8739 47.3482 54.8739 48.0958C54.8739 48.3451 54.8739 48.5942 54.6229 48.8435L53.6188 48.3451C52.8658 48.0959 52.6148 48.345 52.1127 48.8435L51.8617 49.0927L49.8536 52.3323ZM56.8821 47.8466C56.8821 48.0959 56.6311 48.0958 56.38 48.0958C56.38 48.0958 56.3801 48.0958 56.129 48.0958C56.129 47.5974 56.38 46.8498 56.38 46.1022C56.38 45.6038 56.38 45.1054 56.38 44.607C56.38 44.607 56.38 44.607 56.38 44.3578C56.38 44.1086 56.38 43.6102 56.38 43.1118C56.38 42.115 56.38 40.869 56.38 39.623C56.38 39.1246 56.38 38.8754 56.38 38.377C56.38 34.3898 56.3801 29.655 56.129 24.9201C56.3801 19.4377 56.6311 16.6965 56.6311 16.1981C56.6311 15.4505 56.6311 14.9521 57.1331 14.2045C57.3841 13.4569 60.3964 12.7093 60.3964 12.7093C60.3964 12.7093 60.8984 12.4601 60.8984 12.2109L58.1372 12.7093C59.1413 12.2109 61.4004 11.4633 61.4004 11.4633C62.1535 21.6805 62.4045 32.3962 62.1535 38.6262C62.1535 39.1246 62.1535 39.3738 62.1535 39.8722C62.1535 41.3674 61.9025 42.6134 61.9025 43.361C61.9025 43.6102 61.9025 43.8594 61.6514 44.1086L60.6474 43.6102C59.8943 43.361 59.6433 43.6102 59.1413 44.1086L58.8902 44.3578L56.8821 47.8466ZM63.4086 43.1118C63.4086 43.361 63.1576 43.361 62.9065 43.361C63.1576 42.3642 63.1576 41.3674 63.1576 39.8722C63.1576 39.3738 63.1576 39.1246 63.1576 38.6262C63.4086 33.1438 63.1576 25.1693 62.9065 17.1949C63.1576 13.7061 63.1576 11.9617 63.1576 11.7125C63.1576 10.9649 63.1576 10.4665 63.6596 9.71885C63.9106 8.97125 66.9228 8.22364 66.9228 8.22364C66.9228 8.22364 67.4249 7.97444 67.4249 7.72524L64.6637 8.22364C65.6677 7.72524 68.1779 6.72843 68.1779 6.72843C68.931 20.6837 69.182 35.1374 68.68 38.6262C68.68 38.8754 68.68 39.1246 68.4289 39.3738L67.4249 39.1246C66.6718 38.8754 66.4208 39.1246 65.9188 39.623L65.6677 39.8722L63.4086 43.1118ZM75.4575 34.8882L74.4534 34.639C73.7003 34.3898 73.4493 34.639 72.9473 35.1374L70.4371 38.6262C70.4371 38.8754 70.1861 38.8754 69.9351 38.8754C69.9351 38.8754 69.9351 38.8754 69.684 38.8754C69.684 38.377 69.9351 37.6294 69.9351 36.8818C69.9351 36.3834 69.9351 35.885 69.9351 35.3866C70.1861 30.6518 70.1861 23.4249 69.9351 15.9489C70.1861 10.4665 70.4371 7.72524 70.4371 7.22684C70.4371 6.47923 70.4371 5.98083 70.9391 5.23323C71.1902 4.48562 74.2024 3.73802 74.2024 3.73802C74.2024 3.73802 74.7044 3.48882 74.7044 3.23962L71.9432 3.73802C72.9473 3.23962 75.2065 2.49201 75.2065 2.49201C75.9595 17.1949 76.2105 33.1438 75.4575 34.8882Z" fill="#795D48"/>
<path d="M31.78 24.1725C29.2698 23.9233 25.5045 23.6741 24.7515 23.6741V24.1725C25.5045 24.1725 30.5249 25.1693 31.78 25.1693C34.2902 25.4185 38.3065 24.9201 40.0636 24.6709V24.4217C38.5575 24.1725 34.2902 24.4217 31.78 24.1725Z" fill="#795D48"/>
<path d="M10.4436 23.6741C7.93337 23.4249 4.1681 23.1757 3.41504 23.1757V23.6741C4.1681 23.6741 9.18847 24.6709 10.4436 24.6709C12.9537 24.9201 16.97 24.4217 18.7272 24.1725V23.9233C17.2211 23.4249 12.9537 23.9233 10.4436 23.6741Z" fill="#795D48"/>
</svg>
